<svg xmlns="http://www.w3.org/2000/svg" version="1.1" xmlns:xlink="http://www.w3.org/1999/xlink" viewBox="0 0 7.239650580056776 7.788826134572866"><g transform="matrix(1,0,0,1,0.625684665028388,5.013890759317205)"><g clip-path="url(#SvgjsClipPath1001)"><g clip-path="url(#b34b9aca8-50b4-436a-bcf7-e8291f7ee158704b2dd1-2017-418f-ba3b-b24545afd60c)"><path d=" M 0.8663066630040668 -1.0499536491504542 C 0.8663066630040668 -1.0499536491504542 0.8979819307646763 -1.0454334905232212 0.9047678616005221 -1.046560683732531 C 0.9115594853313644 -1.0476878769418412 0.9319172778389021 -0.9051548649140955 0.8889302277202175 -0.8689537456312562 C 0.8459431776015327 -0.832746933453421 0.8131350237366168 -0.8485902602287223 0.8131350237366168 -0.8485902602287223 Z" fill="#bfbe5f" transform="matrix(1,0,0,1,0,0)" fill-rule="nonzero"></path></g><g clip-path="url(#b34b9aca8-50b4-436a-bcf7-e8291f7ee158704b2dd1-2017-418f-ba3b-b24545afd60c)"><path d=" M 0.5161765420334054 -0.6353344136592707 C 0.5161765420334054 -0.6353344136592707 0.5206967006606383 -0.6489119682259585 0.5342742552273265 -0.6851130875087978 L 0.6949163662389866 -0.6658767953155733 C 0.6949163662389866 -0.6658767953155733 0.6915234008210637 -0.6296756760327349 0.6869975492988342 -0.6138437350474266 C 0.6824716977766048 -0.598006101167122 0.6032835283750813 -0.5323841005422936 0.5568978199434771 -0.5640650611978995 C 0.5105178044068694 -0.5957403289585086 0.5161765420334054 -0.6353344136592707 0.5161765420334054 -0.6353344136592707" fill="#bfbe5f" transform="matrix(1,0,0,1,0,0)" fill-rule="nonzero"></path></g><g clip-path="url(#b34b9aca8-50b4-436a-bcf7-e8291f7ee158704b2dd1-2017-418f-ba3b-b24545afd60c)"><path d=" M 0.9886071262141984 -2.692479099334952 L 0.26588272061662754 -2.6743756932460343 C 0.26588272061662754 -2.6743756932460343 0.21612681834708647 -2.382506659669707 0.21612681834708647 -2.3327336787151767 C 0.21612681834708647 -2.2829550048656495 0.19716947800869142 -2.083846002362538 0.19480123369014118 -1.9820285753498674 C 0.19242729647659443 -1.8802168412321931 0.17821213767029662 -1.653964115385698 0.17821213767029662 -1.653964115385698 C 0.16636522318254895 -1.4752129053901237 0.19242729647659443 -1.4571208850911992 0.21848936977064007 -1.4344916274800523 C 0.24455713595968226 -1.411862369868905 0.32275474163181217 -1.3190966459006934 0.355927240776505 -1.2828955266178546 C 0.3890997399211978 -1.2466944073350157 0.4483456981499293 -1.1539343762618004 0.4483456981499293 -1.1539343762618004 C 0.49336511178236997 -1.0883180685319687 0.6094717052362931 -0.9525652944450722 0.6094717052362931 -0.9525652944450722 C 0.6094717052362931 -0.9525652944450722 0.6071034609177429 -0.9435078985056164 0.6047352165991927 -0.9186242544758496 C 0.6023669722806425 -0.8937349175510865 0.5668205359224029 -0.8054950451051037 0.5478688884790044 -0.7579878363591863 C 0.528905855245613 -0.7104635489282791 0.5218352796599413 -0.6760613844643393 0.5218352796599413 -0.6760613844643393 C 0.5218352796599413 -0.6760613844643393 0.5146906964393151 -0.6674764988095943 0.5241693666085124 -0.6606905679737483 C 0.5336423438827134 -0.6539046371379027 0.787192501237498 -0.6267552208995228 0.787192501237498 -0.6267552208995228 L 0.8772313285023791 -1.0611686522935888 C 0.8772313285023791 -1.0611686522935888 0.9222564350298161 -1.4842703013295795 0.9269929236669167 -1.5838219561336366 C 0.9317351051990137 -1.6833736109376942 0.9578028713880556 -1.8417499497407417 0.995711859169849 -2.1992409839418965 C 1.033626539846639 -2.5567206323530587 0.9886071262141984 -2.692479099334952 0.9886071262141984 -2.692479099334952 M 0.6616015447193809 -1.3077905564376144 C 0.6616015447193809 -1.3077905564376144 0.6379077157438856 -1.3643551611229872 0.5644465987088562 -1.4412775583158979 C 0.4909968674638197 -1.518205648403805 0.4862546859317227 -1.5317775100754965 0.4862546859317227 -1.5317775100754965 C 0.4862546859317227 -1.5317775100754965 0.47914995297607194 -1.586076342552257 0.49336511178236997 -1.6381207886103968 C 0.5075802705886678 -1.690165234668537 0.5075802705886678 -1.7082629478624578 0.5052120262701176 -1.7308865125786084 C 0.5028437819515674 -1.7535157701897557 0.509948514907218 -1.7783994142195225 0.5217954293949657 -1.8168663057109748 C 0.5336423438827135 -1.8553275043074295 0.6023669722806425 -2.0227612390499323 0.6213186197240408 -2.11778704233176 C 0.6213186197240408 -2.11778704233176 0.647386385913083 -1.9548791591114871 0.6521228745501835 -1.8553275043074295 C 0.6568650560822804 -1.7557701566083757 0.6639754819329277 -1.620023075416476 0.6710802148885783 -1.5634584707311028 C 0.6781963336342222 -1.5068938660457296 0.6616015447193809 -1.3077905564376144 0.6616015447193809 -1.3077905564376144" fill="#0e0904" transform="matrix(1,0,0,1,0,0)" fill-rule="nonzero"></path></g><g clip-path="url(#b34b9aca8-50b4-436a-bcf7-e8291f7ee158704b2dd1-2017-418f-ba3b-b24545afd60c)"><path d=" M 0.2611462319795269 -0.35524967272572994 C 0.2611462319795269 -0.35524967272572994 0.2646985984573522 -0.3869192475913428 0.2907663646463944 -0.4027625743666441 C 0.31682843794044 -0.41860020824694866 0.33223341180100957 -0.4491425899032513 0.34289051123448566 -0.45819998584270705 C 0.35355899645795474 -0.46724030309717257 0.37251633679634966 -0.4909967539176301 0.37962106975200033 -0.49892126375277845 C 0.3867314956026475 -0.506840080692931 0.41042532457814296 -0.5407754277671564 0.4258302984387125 -0.5554858684381516 C 0.4412295794042856 -0.5701906162141497 0.47558620070825347 -0.6052645422876788 0.4850705637724475 -0.6188364039593703 C 0.49454923394164496 -0.6324139585260586 0.5277388117713273 -0.6577131838905714 0.5194271850764155 -0.6425928547798274 C 0.5048647596753302 -0.6161038143610433 0.5988089129078206 -0.5984786114518328 0.6319814120525132 -0.5984786114518328 C 0.6651539111972061 -0.5984786114518328 0.6829271293763259 -0.6120504731235248 0.6864851887491479 -0.6199692900636768 C 0.6900375552269732 -0.6278881070038294 0.6947797367590701 -0.6244951415859061 0.6983321032368955 -0.6041259632883755 C 0.7018844697147208 -0.5837624778858417 0.7078050805110965 -0.5204119423646225 0.7078050805110965 -0.5204119423646225 C 0.7078050805110965 -0.5204119423646225 0.7184735657345656 -0.5091058529015435 0.7184735657345656 -0.47289904072370836 C 0.7184735657345656 -0.43669792144086994 0.7137313842024686 -0.4321777628136365 0.6971422881826239 -0.4163344360383361 C 0.6805588850577757 -0.40049680215803063 0.668711970570028 -0.38579205438203257 0.6580491782415554 -0.3880578265906456 C 0.647386385913083 -0.39031790590426185 0.6343553492660601 -0.379006123546187 0.6284290455746879 -0.36882722729241735 C 0.6225027418833159 -0.35864263814365316 0.6213186197240407 -0.30207803345827955 0.4803340751353471 -0.2715356518019769 C 0.3393381447566603 -0.2409818843556808 0.29313460896494464 -0.2590909833395951 0.26943508709445274 -0.2783215826378225 C 0.2457412581189573 -0.2975464890410544 0.23389434363120964 -0.34053923205473513 0.2611462319795269 -0.35524967272572994" fill="#0e0904" transform="matrix(1,0,0,1,0,0)" fill-rule="nonzero"></path></g><g clip-path="url(#b34b9aca8-50b4-436a-bcf7-e8291f7ee158704b2dd1-2017-418f-ba3b-b24545afd60c)"><path d=" M 0.8322119148699386 -0.8541465257453211 C 0.8322119148699386 -0.8541465257453211 0.8741799367842471 -0.8554615844895164 0.8917595965334855 -0.903452689310138 C 0.9056161029550028 -0.9412705907719867 0.9098630026224029 -0.9622773733091274 0.9098630026224029 -0.9939526410697366 C 0.9098630026224029 -1.0256279088303457 0.8799354536257238 -1.0491908012209215 0.8926363023629488 -1.0521169492491298 C 0.905331458205177 -1.055043097277339 0.9115936427013436 -1.0611686522935888 0.9566130563337842 -1.0611686522935888 C 1.0016324699662247 -1.0611686522935888 1.0253319918367165 -1.055509914667053 1.0277002361552667 -1.0521169492491298 C 1.0300741733688135 -1.048723983831207 1.0265161139959915 -1.060030073294286 1.070351405469157 -1.0589028800849758 C 1.114192389837319 -1.057775686875666 1.1058921489324 -1.05098975603982 1.1047137196681216 -1.0260947262200601 C 1.1035239046138499 -1.0012110821902929 1.1023454753495714 -0.8914748382374698 1.1023454753495714 -0.8914748382374698 C 1.1023454753495714 -0.8914748382374698 1.0774618313198043 -0.8609324565811671 1.072725342682704 -0.8473605949094756 C 1.067983161150607 -0.8337773474477905 1.0822040128519013 -0.8201997928811027 1.0928611122853773 -0.7919231834334126 C 1.1035239046138499 -0.7636351881957295 1.118934571369416 -0.7466703611061147 1.1047137196681216 -0.6459858201977511 C 1.0904985608618236 -0.5453069721843837 1.0644307946727816 -0.45932717905201725 1.057326061717131 -0.45140836211186475 C 1.0502156358664836 -0.4434838522767164 1.0300741733688135 -0.45140836211186475 1.0265161139959915 -0.45706140684340424 C 1.0229637475181663 -0.46272014446994003 1.0063803443933181 -0.46384733767925024 0.9921594926920237 -0.49440110512554636 C 0.9779443338857258 -0.524943486781849 0.9814910074685548 -0.5645375714826111 0.9684656637165284 -0.6199635971686805 C 0.955428934174509 -0.6754010086447435 0.9447661418460365 -0.6561704093465162 0.9032990946914212 -0.7149950933455056 C 0.8618320475368061 -0.7738197773444946 0.8085180858944432 -0.8439676294915524 0.8322119148699386 -0.8541465257453211" fill="#0e0904" transform="matrix(1,0,0,1,0,0)" fill-rule="nonzero"></path></g><g clip-path="url(#b34b9aca8-50b4-436a-bcf7-e8291f7ee158704b2dd1-2017-418f-ba3b-b24545afd60c)"><path d=" M 0.7137598486774511 -3.614773631930352 C 0.7137598486774511 -3.614773631930352 0.6932825053749867 -3.654566967955992 0.6861379221543604 -3.6647572499997536 C 0.6790047247237271 -3.674941839148519 0.6583907519413463 -3.6710137416009236 0.6458208397890413 -3.66727920248321 C 0.6332509276367362 -3.663533277575503 0.6215064852589257 -3.624144137094616 0.6205785433744938 -3.614915954305265 C 0.6196449085950654 -3.6056934644109107 0.6408964856170557 -3.582028099910398 0.6408964856170557 -3.582028099910398 C 0.6408964856170557 -3.582028099910398 0.6095741773462303 -3.3454712341202106 0.59582014303465 -3.2439270660673727 C 0.5820661087230699 -3.142382898014535 0.5288887765606234 -2.6580029272360575 0.5288887765606234 -2.6580029272360575 L 0.5106715125717753 -2.5506121560217982 L 0.5475899366241751 -2.446779444180361 L 0.6408566353520802 -2.5421126637920013 C 0.6408566353520802 -2.5421126637920013 0.6760899624855113 -2.6552134086877643 0.6834679544009948 -2.837602378586112 C 0.7024708378993619 -3.307374380803532 0.6903848218217606 -3.5808724422261053 0.6903848218217606 -3.5808724422261053 Z" fill="#8c1627" transform="matrix(1,0,0,1,0,0)" fill-rule="nonzero"></path></g><g clip-path="url(#b34b9aca8-50b4-436a-bcf7-e8291f7ee158704b2dd1-2017-418f-ba3b-b24545afd60c)"><path d=" M 1.2920498153184403 -2.908205662332891 C 1.2856339226573679 -2.915976464003134 1.2846547447179675 -2.925136332052526 1.2842050060132426 -2.9366644444204693 C 1.283766653098511 -2.9481697852084263 1.2708836317213976 -3.01619988041678 1.2685040016128544 -3.038299698793251 C 1.2661300643993076 -3.060405210064719 1.251675804003156 -3.105885748191877 1.2506624686937764 -3.1227481031715545 C 1.2496491333843966 -3.1396047652562356 1.2230974711206508 -3.193818204308048 1.2150761820705611 -3.209132091848673 C 1.2070492001254751 -3.224485829654274 1.1986407942156225 -3.2952712860409417 1.1923501452444734 -3.3316090348036966 C 1.1860594962733242 -3.3679410906714553 1.153877560858025 -3.4894160841070923 1.1490955290609526 -3.541312514895323 C 1.1443134972638798 -3.5932317172635395 1.1158433293863084 -3.598662739090215 1.079812996953365 -3.6148476395653066 C 1.0437940503104146 -3.631021154250406 0.8589115924035938 -3.7268382699367497 0.8589115924035938 -3.7268382699367497 C 0.8589115924035938 -3.7268382699367497 0.8116947213024985 -3.7803856402739697 0.806149841575893 -3.787484680334624 C 0.8005935760592943 -3.7945837203952784 0.7904773016504871 -3.799695940102149 0.7904773016504871 -3.799695940102149 L 0.794433863673065 -3.8371267247042344 C 0.794433863673065 -3.8371267247042344 0.8057057957661646 -3.8583726088312282 0.8181789287035292 -3.875918111210488 C 0.8306463687458969 -3.893429456219768 0.8296614979114998 -3.9025779384791672 0.8375290787966835 -3.925799257169952 C 0.8454023525768638 -3.9489978042807508 0.8475201095155673 -3.9515368354491964 0.8475201095155673 -3.9515368354491964 C 0.8475201095155673 -3.9515368354491964 0.8503494783288353 -3.954929800867119 0.8565718125600261 -3.9563473317212514 C 0.8627884538962205 -3.9578047128403595 0.8781649632818076 -3.977963254023019 0.8937293382022795 -4.011249611067642 C 0.9092937131227514 -4.044524582322272 0.9096239010325493 -4.078499779661474 0.8982722684094986 -4.080367049220331 C 0.8868978642064614 -4.082217240094198 0.8671492114635511 -4.073171229944736 0.8671492114635511 -4.073171229944736 C 0.8671492114635511 -4.073171229944736 0.8715441264008607 -4.076729289317557 0.8759561200231597 -4.117308244852716 C 0.8803738065404554 -4.1578815074928785 0.8638473323655724 -4.207774039242336 0.8518182452379363 -4.238083012203782 C 0.8397948510052966 -4.268409063850217 0.7662198760703368 -4.329909408497568 0.6968291789578155 -4.330165588772411 C 0.6274384818452944 -4.3303989974672685 0.588624323759055 -4.298501706801796 0.5695929757857056 -4.28255021502156 C 0.5505843993923419 -4.266638573506301 0.5179925755372937 -4.1914468163923315 0.5127721908254895 -4.15846787567752 C 0.5075404203236922 -4.1255230923326875 0.5187269589918441 -4.088177701155549 0.5187269589918441 -4.088177701155549 C 0.5187269589918441 -4.088177701155549 0.5072500826788698 -4.09849891978423 0.4858846477569491 -4.096984609715157 C 0.46451921283502823 -4.095475992541082 0.47605301809796763 -4.032694746519514 0.48005512328051775 -4.017711046888686 C 0.48405153556807123 -4.0027387330478525 0.49232331199800755 -3.9851021443486485 0.5061741255245285 -3.975025720204817 C 0.5199964745760668 -3.9649492960609853 0.530078591614895 -3.9675794135493754 0.530078591614895 -3.9675794135493754 C 0.530078591614895 -3.9675794135493754 0.534257176542337 -3.951035860689503 0.5348947807819467 -3.930285258427206 C 0.5355209992315635 -3.909528963269912 0.5385325406847198 -3.9037051316884774 0.5438667832964543 -3.891163684011155 C 0.5492067188031853 -3.878639315018822 0.552332118156272 -3.86431599120759 0.552696463436049 -3.853539340979187 C 0.5530608087158259 -3.84280254101576 0.5444986946410674 -3.8334035713765138 0.5378607790751309 -3.8357718156950638 C 0.531228556404191 -3.8381343671186174 0.5109618502165977 -3.8190005470353308 0.49352451284227217 -3.8032255349999877 C 0.47608148257295024 -3.787501759019613 0.4572152285544994 -3.7700473429602983 0.4301568986360638 -3.7548017701596312 C 0.4030928758226315 -3.739556197358964 0.21776067921108608 -3.6687764338672935 0.17003714045530074 -3.652847713667044 C 0.12231929459451206 -3.636924686361792 0.1309838807792078 -3.6008203462938937 0.12447690179819135 -3.5723786428913047 C 0.11796992281717471 -3.543902782118737 0.09767475215459893 -3.4507613270807553 0.08362468730319987 -3.373690914617935 C 0.06958600824179387 -3.2965806518901397 0.04692259326066768 -3.166150734624985 0.04692259326066768 -3.166150734624985 C 0.04692259326066768 -3.166150734624985 0.038633738145741975 -3.146766427161851 0.03368091949877397 -3.12618661174945 C 0.028716715061812722 -3.1056067963370477 0.023906218789757544 -3.105851590821898 0.022796104265437246 -3.0864445117787787 C 0.02168029684612033 -3.0670658972106413 0.022414680300670765 -3.0231907554725 0.021902319750984316 -3.0131200242236655 C 0.021378573411304818 -3.0030208284998476 0.013863952015905125 -2.9914244013919467 0.010505143967961332 -2.9856631916554734 C 0.007123564340031443 -2.9799133677089933 0.011786045342177174 -2.9588325775368984 0.013232040671291944 -2.952820880420578 C 0.014672343105410282 -2.946792104619269 0.002996215467558071 -2.9293433814549505 0.0004059482441438588 -2.9236561793534324 C -0.0021672402942808735 -2.918008827516889 0.008074277804449618 -2.8820866600888797 0.014740657845368576 -2.8720045430500516 C 0.021401344991291104 -2.8619224260112235 0.07609298722281052 -2.790692923814828 0.08900447307490657 -2.7743372364898407 C 0.10192165182199904 -2.757992934954846 0.15384654708521225 -2.690332877921265 0.16211263062015205 -2.672707675012055 C 0.17038440705008848 -2.6551052436828306 0.17542261912200408 -2.637884236318373 0.17161976526433212 -2.6212837545085352 C 0.16782829719665301 -2.6046889655936942 0.16185645034530893 -2.556236736278355 0.16243143273995686 -2.5509138794566137 C 0.1630064151346048 -2.5455625581598893 0.18318203500225402 -2.5508114073466763 0.19048032638778617 -2.5570052771028844 C 0.19778431066831492 -2.563204839754089 0.20841863852180495 -2.5681690441910505 0.20841863852180495 -2.5681690441910505 C 0.20841863852180495 -2.5681690441910505 0.19302505045122836 -2.4739971751586998 0.18355207317702746 -2.398947740419642 C 0.17406201721783707 -2.3239153843655744 0.16257375511486968 -2.2378445049132645 0.15447276553482903 -2.1945671171497576 C 0.14637177595478815 -2.1512783435962572 0.1658243981578798 -2.15568464432356 0.1743637406526524 -2.15044148803177 C 0.18289739025242818 -2.1451983317399796 0.24887235036704047 -2.1322185311479256 0.26987913290418075 -2.144492412760412 C 0.29088022254632445 -2.1567947588478806 0.3771161959535335 -2.2593465693151016 0.40669647835542555 -2.3180517025191643 C 0.43626537496732437 -2.376734064143241 0.4905186642841122 -2.4727959743144345 0.4905186642841122 -2.4727959743144345 C 0.4905186642841122 -2.4727959743144345 0.5284618094358846 -2.4537304689711057 0.5271581364816827 -2.4435686514023267 C 0.5258544635274807 -2.4334182196235403 0.5524345902662093 -2.430879188455095 0.5573931018081739 -2.414438107705159 C 0.5623516133501385 -2.397997026955224 0.5984161031530609 -2.388763151270877 0.6103768755407389 -2.37387623085499 C 0.6223433408234135 -2.3589551530691244 0.6607988465248722 -2.36463096938065 0.6658313657017915 -2.3474384264911743 C 0.6708752706687037 -2.330245883601699 0.6926221295553909 -2.335648440953392 0.6926221295553909 -2.335648440953392 C 0.6926221295553909 -2.335648440953392 0.7042925642982467 -2.316093346640363 0.7472340712569593 -2.2428200951402184 C 0.7901812711106684 -2.1695582294300673 0.8186571318832363 -2.1271006185460584 0.8736789620245536 -2.1122023123401785 C 0.9287064850608675 -2.0972983132393024 1.0535118220694657 -2.160045401890891 1.0558629877030263 -2.160312967955727 C 1.0582312320215765 -2.1605748411255665 1.078088049769421 -2.1835001292765326 1.078088049769421 -2.1835001292765326 C 1.078088049769421 -2.1835001292765326 1.071034552868739 -2.2344287679153556 1.0637818046431788 -2.2722011262172326 C 1.0565347493126152 -2.3099620987291165 1.0537281520793333 -2.4029726171821784 1.0507450751011596 -2.438120550890662 C 1.047756305227989 -2.473274177494142 1.0572065109222042 -2.4596283081874954 1.0609809003048936 -2.4615866640662967 C 1.0647609825825797 -2.4635336341551053 1.0771088718300206 -2.4525064965468557 1.0948877829041368 -2.44284565373777 C 1.1126610010832565 -2.433201889613673 1.1215874604377922 -2.446506185220529 1.123221321301792 -2.4536223039661724 C 1.1248494892707952 -2.460738422711816 1.1034271253989092 -2.496973699364634 1.0983262914820318 -2.5072436819383466 C 1.093242536250144 -2.5174738142470843 1.0986450936018368 -2.526542595976533 1.1009279444954392 -2.527555931285912 C 1.1032164882840383 -2.528592038175278 1.1223389225773321 -2.558394343482034 1.1286865004984463 -2.566022822777364 C 1.1350454642095535 -2.573651302072694 1.1658212545607136 -2.6062488188227393 1.1790800070075969 -2.6238512501519633 C 1.1923444523494768 -2.641487838851167 1.231033366745793 -2.6895871086767222 1.2412805777395197 -2.7053621207120653 C 1.2515505603132329 -2.7211029753774287 1.2589740953886883 -2.718791660008844 1.2657144830645621 -2.730336851061776 C 1.272443484950443 -2.7418364989547364 1.2769579506826794 -2.759290915014051 1.28455227260803 -2.7701472657724056 C 1.2921579803233743 -2.7809694591607808 1.3000426398935476 -2.781817700515261 1.30471081379069 -2.7977464207155105 C 1.3093846805828286 -2.8136580622307696 1.3032249681965993 -2.833822296308426 1.302405191317101 -2.8414507756037555 C 1.3015854144376031 -2.849067869109093 1.3050808519654633 -2.861028641496771 1.304568491415777 -2.873302523109257 C 1.3040447450760975 -2.885587790511737 1.2984657079795128 -2.900400703292669 1.2920498153184403 -2.908205662332891 M 0.28460095936516855 -2.942630598376817 C 0.285147477284834 -2.9226485369390494 0.27671629979499546 -2.860043770662374 0.2743992915314137 -2.8520907963522424 C 0.27205951168784615 -2.8441321291471144 0.26357140524804235 -2.85632631022965 0.2536429963741201 -2.874549267113494 C 0.24371458750019795 -2.892732373732363 0.24271263798081152 -2.887227344270733 0.23759472537894438 -2.9052168924597206 C 0.23247681277707746 -2.9231495116987425 0.2274442936001583 -2.9179803630419068 0.22428473687709238 -2.94001186667842 C 0.22112518015402668 -2.9620262916299436 0.21485730276286366 -2.95365204309007 0.2179940879059435 -2.976338229651182 C 0.22113656594401973 -2.9990301091072906 0.23251666304205304 -3.01183912284945 0.23463441998075676 -3.036739845564206 C 0.2367350982344708 -3.061640568278963 0.2557664462078204 -3.114567413061563 0.2557664462078204 -3.114567413061563 C 0.2557664462078204 -3.114567413061563 0.26165289963421673 -3.022667009132821 0.27094939716352584 -3.0028500416499524 C 0.28025728048282783 -2.9830273812720876 0.2840430556555103 -2.962641124289567 0.28460095936516877 -2.942630598376817 M 1.0750195793662995 -2.8355415505973736 C 1.0656035310420637 -2.826802956777723 1.0580433664866917 -2.8228919379151174 1.051877961205466 -2.8060409687254326 C 1.0457182488192367 -2.7891899995357488 1.0382150132138301 -2.7922413912538806 1.0259183600213575 -2.773198657490538 C 1.0136103210388923 -2.7541274592522127 0.9896147686285816 -2.7399920009758656 0.984701800246589 -2.726363210354209 C 0.9797888318645966 -2.7127173410475622 0.9764186380266598 -2.7069675171010825 0.9764186380266598 -2.7069675171010825 C 0.9764186380266598 -2.7069675171010825 0.9825498859379064 -2.7315380519060413 0.963763332449407 -2.758044171009815 C 0.9449653931709145 -2.7845502901135886 0.9410657600983018 -2.791068654884598 0.9361414059263162 -2.8221632473555633 C 0.9312170517543308 -2.8532122966665563 0.933420202117982 -2.892049226332781 0.933420202117982 -2.892049226332781 C 0.933420202117982 -2.892049226332781 0.9358339895965045 -2.921583965574701 0.9538349235754848 -2.954380733649624 C 0.9718415504494616 -2.9871433443545676 1.0108037238056105 -3.084622785379894 1.0208687621594488 -3.1319876717508985 C 1.0208687621594488 -3.1319876717508985 1.0326815192772174 -3.0144920119178256 1.0441470098001986 -2.9671498971268067 C 1.0556181932181763 -2.919796396545795 1.059825242620601 -2.9325997173929577 1.0569560235423574 -2.8999111143229683 C 1.0540924973591101 -2.867194046777997 1.0644763378327535 -2.874486645268533 1.07162092105338 -2.859838826442499 C 1.0787655042740063 -2.845196700511463 1.0844527063755247 -2.844257372837038 1.0750195793662995 -2.8355415505973736" fill="#0e0904" transform="matrix(1,0,0,1,0,0)" fill-rule="nonzero"></path></g><g clip-path="url(#b34b9aca8-50b4-436a-bcf7-e8291f7ee158704b2dd1-2017-418f-ba3b-b24545afd60c)"><path d=" M 0.6092952254914011 -3.6761202684127974 L 0.6577246832267541 -3.685234593302218 L 0.700392931225634 -3.656844125954598 L 0.663161397948426 -3.5933455751634695 C 0.663161397948426 -3.5933455751634695 0.6819137940669463 -3.507303160186142 0.679346298423518 -3.4685630097348574 C 0.6767731098850933 -3.4298285521785696 0.6677498713156169 -3.278078743151466 0.6692129453297214 -3.228920594856559 C 0.6706874051338187 -3.1797966039316314 0.6673912189308365 -3.082459485281218 0.6673912189308365 -3.082459485281218 L 0.586654582090261 -2.890199035458914 L 0.5363236974260719 -3.250496666893351 C 0.5363236974260719 -3.250496666893351 0.5500549601576662 -3.334922299691668 0.5588447900322853 -3.38964240639817 C 0.5676346199069043 -3.4443397415246864 0.5816163700183452 -3.542667423904493 0.5940895029557095 -3.5576682022203103 C 0.6065626358930739 -3.5726974450111095 0.6224685845133368 -3.6003421431141867 0.6224685845133368 -3.6003421431141867 Z" fill="#bfbe5f" transform="matrix(1,0,0,1,0,0)" fill-rule="nonzero"></path></g><g clip-path="url(#b34b9aca8-50b4-436a-bcf7-e8291f7ee158704b2dd1-2017-418f-ba3b-b24545afd60c)"><path d=" M 3.8118902347308743 -0.6550090587672268 C 3.8118902347308743 -0.6550090587672268 3.811884541835878 -0.6112648536140055 3.806242882894331 -0.5957403289585095 C 3.806242882894331 -0.5957403289585095 3.854216909029963 -0.5209584602842883 3.928998777704184 -0.570344324379056 L 3.9374698054589983 -0.5830451731162811 C 3.9374698054589983 -0.5830451731162811 3.9304163085583164 -0.653591527913095 3.938881643418134 -0.6761752423642693 C 3.947346978277952 -0.6987532639204486 3.8118902347308743 -0.6550090587672268 3.8118902347308743 -0.6550090587672268" fill="#bfbe5f" transform="matrix(1,0,0,1,0,0)" fill-rule="nonzero"></path></g><g clip-path="url(#b34b9aca8-50b4-436a-bcf7-e8291f7ee158704b2dd1-2017-418f-ba3b-b24545afd60c)"><path d=" M 3.249255729330301 -0.7301609656162213 C 3.249255729330301 -0.7301609656162213 3.261597925682745 -0.7326259891497124 3.263009763641881 -0.8088083099930761 L 3.3829419825334623 -0.8327981695083899 L 3.40129018310723 -0.769299618717262 C 3.40129018310723 -0.769299618717262 3.42669188058168 -0.6578384275804949 3.3660170057088235 -0.67053927631772 C 3.3053421308359665 -0.6832344321599484 3.249255729330301 -0.7301609656162213 3.249255729330301 -0.7301609656162213" fill="#bfbe5f" transform="matrix(1,0,0,1,0,0)" fill-rule="nonzero"></path></g><g clip-path="url(#b34b9aca8-50b4-436a-bcf7-e8291f7ee158704b2dd1-2017-418f-ba3b-b24545afd60c)"><path d=" M 3.889786116968189 -0.5712039515235299 C 3.8483019911285843 -0.5712039515235299 3.8229572226040998 -0.5844171608104411 3.8065901494891192 -0.6120277015435387 C 3.803777859360841 -0.6039380977534909 3.800202721303029 -0.5962242250332133 3.7963770958653713 -0.5904744010867331 C 3.7879060681105567 -0.577773552349508 3.7879060681105567 -0.5587251256911694 3.7868471896412053 -0.5386178205634784 C 3.7857883111718538 -0.5185162083307837 3.7773229763120355 -0.5460299698489401 3.7752109122683284 -0.4952322677950374 C 3.7730931553296245 -0.44444025863613046 3.7910827035186125 -0.4317337170039086 3.7974302814397265 -0.4274982031265022 C 3.803783552255837 -0.423274075039088 3.8133077655850065 -0.41057322630186244 3.8133077655850065 -0.3883538571304648 C 3.8133077655850065 -0.36612879506407037 3.7963770958653713 -0.3417802831639758 3.817543279462414 -0.3100423935584047 C 3.83870377016446 -0.27829311816284097 3.893736986095771 -0.2444260858285734 3.969930692729127 -0.2507736637496878 C 4.046124399362483 -0.2571269345657976 4.03765337160767 -0.3206197924619296 4.039771128546373 -0.35025131091878947 C 4.0418888854850765 -0.3798828293756511 4.024958215765441 -0.37141749451583284 4.024958215765441 -0.3883538571304648 C 4.024958215765441 -0.40528452685010086 3.993208940369877 -0.45395877907030346 3.982631541466352 -0.47724271960605025 C 3.972048449667831 -0.5005209672467994 3.9508822660707876 -0.5640252109329245 3.9445346881496737 -0.5788324308188599 C 3.941386517216601 -0.5861819582593601 3.9397981995125733 -0.589369979457409 3.939513554762748 -0.5948294657590671 C 3.9296876179987628 -0.5827434496814661 3.9140378496533432 -0.5712039515235299 3.889786116968189 -0.5712039515235299" fill="#0e0904" transform="matrix(1,0,0,1,0,0)" fill-rule="nonzero"></path></g><g clip-path="url(#b34b9aca8-50b4-436a-bcf7-e8291f7ee158704b2dd1-2017-418f-ba3b-b24545afd60c)"><path d=" M 4.070102873087804 -2.3341056664093367 C 4.074338386965212 -2.3806678545858326 3.971336837793266 -2.6671058663354845 3.971336837793266 -2.6671058663354845 C 3.971336837793266 -2.6671058663354845 3.436563360505637 -2.7418991207996983 3.3857713513467305 -2.5979827352877995 C 3.334973649292827 -2.4540549639859073 3.33073813541542 -2.3799733213962577 3.3243905574943056 -2.360930587632915 C 3.3180429795731916 -2.341882160974576 3.294759039037445 -2.147168073408774 3.294759039037445 -2.1323437748378486 C 3.294759039037445 -2.1175365549519136 3.286293704177627 -2.087899343600056 3.2757106123791058 -2.077316251801535 C 3.265133213475581 -2.06673885289801 3.2757106123791058 -2.045572669300967 3.2778283693178096 -2.0349895775024462 C 3.279946126256513 -2.0244007928089283 3.2714807913966952 -1.9947806601420606 3.265133213475581 -1.9757208476937285 C 3.2587799426594706 -1.9566781139303862 3.239731516001131 -1.8550827098225793 3.239731516001131 -1.8550827098225793 C 3.239731516001131 -1.8550827098225793 3.228089545733258 -1.6931710832266966 3.2270363601589027 -1.6476620806245559 C 3.2259774816895512 -1.6021644638124082 3.2270363601589027 -1.5481901263504492 3.2206830893427925 -1.531259456630814 C 3.214335511421678 -1.514328786911178 3.2048112980925083 -1.478343997638207 3.203752419623157 -1.4529479930587534 C 3.202693541153805 -1.4275519884793 3.206923362136216 -1.2645814834140658 3.2079822406055674 -1.216960416768218 C 3.209041119074919 -1.1693336572273734 3.2143355114216785 -1.0878512511422542 3.2206830893427925 -1.060337489624097 C 3.2270363601589027 -1.0328180352109437 3.2302073026719618 -0.9354638378755409 3.232325059610665 -0.898420170133218 C 3.234442816549369 -0.8613821952858913 3.2347900831441563 -0.7904771881042971 3.2347900831441563 -0.7904771881042971 L 3.3053421308359665 -0.7566101557700295 L 3.387171803515873 -0.8010545870078225 L 3.404113859025501 -0.8102258408472074 L 3.395648524165684 -0.8892432233988354 C 3.395648524165684 -0.8892432233988354 3.398466507188959 -1.059278611154745 3.402702021066366 -1.1079585562699448 C 3.4069318420487766 -1.1566385013851441 3.4259859616021124 -1.2561161485542476 3.4302157825845225 -1.278341210620642 C 3.4344512964619303 -1.3005605797920397 3.4270448400714635 -1.3333630407619594 3.4154028698035908 -1.3566412884027086 C 3.4037608995357176 -1.3799309218334521 3.4206915692553532 -1.3757011008510416 3.433392417992578 -1.3936792632500357 C 3.446087573834807 -1.4116745043340195 3.4704303928399045 -1.4963392387221903 3.4767779707610185 -1.525970757179051 C 3.483125548682133 -1.5556022756359114 3.5191103379551043 -1.6487266519889032 3.5370998861440914 -1.7069308104332728 C 3.5550894343330794 -1.7651292759826456 3.663032416362 -2.0318186349893868 3.675733265099225 -2.05721463956884 C 3.6884284209414533 -2.0826106441482937 3.7021881481480303 -2.0508613687527295 3.7286430311968353 -1.9238699600654696 C 3.7551036071406365 -1.7968785513782097 3.7635689420004543 -1.7926487303957988 3.767798762982865 -1.71116632431068 C 3.772028583965276 -1.6296782253305646 3.7815584901894415 -1.525970757179051 3.788964946579908 -1.4455415366682876 C 3.7963770958653704 -1.3651123161575232 3.8164787080980647 -1.342892946986125 3.821767407549827 -1.3185501279810277 C 3.8270617998965863 -1.2942073089759294 3.826002921427235 -1.1068996778005928 3.826002921427235 -1.1068996778005928 C 3.826002921427235 -1.1068996778005928 3.8143609511593617 -0.8892432233988354 3.8133020726900093 -0.8215205445202933 C 3.812243194220658 -0.753792172746754 3.8048367378301915 -0.7065126798006975 3.8048367378301915 -0.6917054599147616 C 3.8048367378301915 -0.6858702425433343 3.795454846875935 -0.6423594460849702 3.7935477270521027 -0.6352660989193128 C 3.807802736123376 -0.6232939407416414 3.8502945043773638 -0.6012738228951218 3.892006346016829 -0.6040576485484168 C 3.892006346016829 -0.6040576485484168 3.9463108713885853 -0.611492569413866 3.9656894859567227 -0.6239770881412228 C 3.9661904607164162 -0.6286452620383653 3.9669419228559564 -0.6345715657297375 3.967938179480346 -0.6425416187248589 C 3.9721680004627564 -0.6764086510591265 3.9798021726530832 -0.7453268378869367 3.988267507512901 -0.7989368300691178 C 3.9964823549928723 -0.8509698903372653 4.009427998214947 -0.9322701237824957 4.016487188010626 -0.9908386275066423 C 4.022014989052242 -1.0367347469685462 4.0291880367478505 -1.2222491162199796 4.039771128546373 -1.2709290613351794 C 4.050354220344894 -1.3196033135553829 4.058819555204712 -1.3788720433641006 4.052471977283597 -1.4254342315405966 C 4.0461243993624825 -1.4719964197170925 4.056701798266008 -1.5460723694117453 4.052471977283597 -1.6370846817210305 C 4.04823646340619 -1.728091301135319 4.079980045906758 -1.9580785660995281 4.084215559784164 -2.0321545157941814 C 4.088445380766576 -2.106230465488834 4.099028472565097 -2.135861983945695 4.1011462295038 -2.17607090130608 C 4.103263986442504 -2.216291204456459 4.065873052105394 -2.287537785337844 4.070102873087804 -2.3341056664093367" fill="#0e0904" transform="matrix(1,0,0,1,0,0)" fill-rule="nonzero"></path></g><g clip-path="url(#b34b9aca8-50b4-436a-bcf7-e8291f7ee158704b2dd1-2017-418f-ba3b-b24545afd60c)"><path d=" M 3.434445603566934 -0.6994705686900087 C 3.434445603566934 -0.6994705686900087 3.4235095522786287 -0.7386092217910498 3.4055200040896416 -0.7692996187172616 C 3.3875304559006536 -0.7999900156434738 3.4069318420487766 -0.7608342838574433 3.39140731739328 -0.7368444243421295 C 3.36953521481667 -0.7030570925378128 3.3282617260919363 -0.694853630847835 3.308160113859242 -0.7142720956809474 C 3.283373249044416 -0.7382050262462969 3.2492500364353045 -0.7301609656162213 3.2492500364353045 -0.7301609656162213 C 3.2397315160011315 -0.7280432086775175 3.2153886969960337 -0.6867754128477803 3.2100943046492745 -0.6761923210492586 C 3.2048056051975125 -0.6656092292507374 3.1942225133989908 -0.6402075317762876 3.1846983000698215 -0.6253946189953554 C 3.1751740867406517 -0.6105817062144232 3.1529547175692536 -0.5777678594545117 3.1413127473013804 -0.5629549466735795 C 3.129665084138511 -0.5481420338926477 3.1095634719058163 -0.5248637862518977 3.100039258576647 -0.5068685451679134 C 3.090515045247477 -0.48887899697892623 3.078878767874601 -0.4719483272592906 3.067231104711731 -0.44655232267983713 C 3.0555891344438577 -0.42115062520538693 3.0630012837293203 -0.39680780620028955 3.0704077401197862 -0.3894013498098232 C 3.077814196510252 -0.3819948934193578 3.115916742721927 -0.35553431747555564 3.2026935411538053 -0.3798771364806539 C 3.2894646466906865 -0.404214262590755 3.306395316410322 -0.45501196464465865 3.3106308302877294 -0.4730015128336458 C 3.3148663441651363 -0.4909967539176301 3.331797013884772 -0.5269815431906006 3.3444921697270003 -0.542847641545888 C 3.3571930184642254 -0.5587194327961722 3.363546289280336 -0.5661258891866376 3.376241445122565 -0.562954946673579 C 3.3889422938597895 -0.5597840041605209 3.420685876360357 -0.5915275866610878 3.4302157825845234 -0.6031638640339647 C 3.4397399959136927 -0.6148172200918309 3.442916631321748 -0.6317478898114666 3.442916631321748 -0.667721293294445 C 3.442916631321748 -0.703706082567416 3.434445603566934 -0.6994705686900087 3.434445603566934 -0.6994705686900087" fill="#0e0904" transform="matrix(1,0,0,1,0,0)" fill-rule="nonzero"></path></g><g clip-path="url(#b34b9aca8-50b4-436a-bcf7-e8291f7ee158704b2dd1-2017-418f-ba3b-b24545afd60c)"><path d=" M 3.7004119649091174 -2.6898603676365545 C 3.7004119649091174 -2.6898603676365545 3.764531041254866 -2.595062280154587 3.7828280057736654 -2.5822874237824074 C 3.7870008978061103 -2.579372661544192 3.792807650702556 -2.5199786880455513 3.792807650702556 -2.5199786880455513 L 3.7449474824668543 -2.458893924732945 L 3.643420393099006 -2.530174662984309 L 3.6419060830299332 -2.592301226081277 C 3.6419060830299332 -2.592301226081277 3.6841815212740534 -2.6563406018970745 3.7004119649091174 -2.6898603676365545" fill="#bfbe5f" transform="matrix(1,0,0,1,0,0)" fill-rule="nonzero"></path></g><g clip-path="url(#b34b9aca8-50b4-436a-bcf7-e8291f7ee158704b2dd1-2017-418f-ba3b-b24545afd60c)"><path d=" M 4.234354279527255 -2.2882835545823874 C 4.234354279527255 -2.2882835545823874 4.230505882509611 -2.3015252283442815 4.2222227202896825 -2.3127573101724055 C 4.213922479384763 -2.3239836991055327 4.1944983216566545 -2.3479963302008335 4.1944983216566545 -2.3479963302008335 C 4.1944983216566545 -2.3479963302008335 4.192340714452975 -2.3858597748226544 4.19515869747625 -2.4024830282124783 C 4.197982373394521 -2.4190778171273193 4.2050757205601785 -2.4333328261985927 4.212134910355858 -2.465770941888735 C 4.219199793046532 -2.4982033646838815 4.223321449024009 -2.548192675648279 4.22402167510858 -2.585224957600609 C 4.224721901193152 -2.6222686253429326 4.222888789004275 -2.649975945290971 4.226583477857012 -2.6890804410220324 C 4.230272473814754 -2.7281906296480902 4.219843090181138 -2.778014846657589 4.218066906942226 -2.807151083249753 C 4.216285030808317 -2.8362930127369133 4.212265846940777 -2.8640743403199065 4.209203069432652 -2.89760549184938 C 4.206140291924527 -2.931170800748832 4.203777740500974 -2.9828565944221914 4.202109722266994 -3.0149019003575743 C 4.2004417040330155 -3.046964284977947 4.197025967035107 -3.1277521578734913 4.18779209135076 -3.170995388267019 C 4.178569601456405 -3.21425000445054 4.181472977904628 -3.2330251721490466 4.171846292465521 -3.266100892078798 C 4.162225299921411 -3.299165226218557 4.136778059286988 -3.3931833870860024 4.126416990393332 -3.4444649852146094 C 4.116027457024691 -3.495752276238213 4.08907729211119 -3.4938906995743526 4.072636211361254 -3.5010637472699617 C 4.056189437716323 -3.508242487860567 4.016834454605414 -3.524290758855743 3.9740011126516355 -3.5441418837085905 C 3.93116207780286 -3.563936079611473 3.866126445362673 -3.5926396561839016 3.8448862541306754 -3.6072533176399557 C 3.8236517557936747 -3.621884057780999 3.8186761655667203 -3.6249923784490967 3.809755399107181 -3.657310943344312 C 3.800828939752646 -3.689635201134524 3.7643260970349917 -3.7230354160790777 3.75374300523647 -3.7314324361989373 C 3.7431712992279422 -3.7398351492137936 3.7464902570109104 -3.7317113880537667 3.7477426939101433 -3.7454654223653465 C 3.7490008237043737 -3.759213763781931 3.754762033440846 -3.814258365503234 3.754762033440846 -3.814258365503234 C 3.754762033440846 -3.814258365503234 3.7752507625333043 -3.8178050390860627 3.7829304778836024 -3.8284279811495594 C 3.790610193233902 -3.839022458738074 3.800248264463001 -3.8626422800786147 3.8035672222459693 -3.8734189303070177 C 3.806886180028938 -3.8841955805354202 3.8064762915891883 -3.892194098005524 3.8134273163799333 -3.902822732964018 C 3.8203783411706778 -3.9134570608175077 3.8199570669409364 -3.9403730683610307 3.8143609511593617 -3.9456788464977826 C 3.8087534495877944 -3.950978931739538 3.7903767845390446 -3.9458894836126537 3.7903767845390446 -3.9458894836126537 C 3.7903767845390446 -3.9458894836126537 3.7903597058540552 -3.9640612044415295 3.792027724088034 -3.9697882568080236 C 3.7937014352170086 -3.9755437736495 3.794805856846333 -4.0038374617821795 3.796058293745566 -4.017614267673745 C 3.7973164235397956 -4.031373994880322 3.79855178175404 -4.044422110212335 3.803271191706151 -4.053667371686675 C 3.8079849087632653 -4.062946790530995 3.7965251111352805 -4.0859290076319255 3.7934224833621792 -4.099825364318419 C 3.7903312413790724 -4.11377295705988 3.7637625004303366 -4.140967916458233 3.7579272830589088 -4.140472634593536 C 3.7520977585824777 -4.139971659833843 3.7377744347712456 -4.145601932985396 3.7330607177141313 -4.155228618424503 C 3.728347000657017 -4.164860996758606 3.7221759024807946 -4.174550304042675 3.714479108445506 -4.182110468598046 C 3.706776621515222 -4.189670633153418 3.6709910835671287 -4.204147665129556 3.6601916617587396 -4.20675501103796 C 3.6493865470553537 -4.209356664051367 3.6209448436527656 -4.225706658481358 3.6057903571720424 -4.228490484134654 C 3.590630177796323 -4.2312458453129675 3.5743598838962827 -4.223884932082473 3.567021742245775 -4.221977812258641 C 3.5596722148052744 -4.220082078224801 3.541671280826294 -4.224420064212146 3.529676351068637 -4.214696599558098 C 3.51766434262599 -4.2049959064840365 3.5111061275900046 -4.20450062461934 3.501621764525811 -4.203430360359995 C 3.492126015671624 -4.202331631625667 3.4842015058364755 -4.2041021219695835 3.475263660691947 -4.198642635667926 C 3.4663315084424142 -4.193154684891286 3.4616348700702897 -4.184615342396513 3.451205486436674 -4.177772482610702 C 3.440759024118069 -4.170901158349908 3.442768616051839 -4.166460700252626 3.435310923606405 -4.161655896875568 C 3.42785323116097 -4.156856786393506 3.4190690941813475 -4.155029367099624 3.414150432904358 -4.140666193023417 C 3.409237464522366 -4.126325790527195 3.408850347662603 -4.11617535874841 3.410689152746477 -4.107385528873791 C 3.4125279578303513 -4.098595698999171 3.4148108087239537 -4.063595780560597 3.4129093817951177 -4.052050589507664 C 3.411013647761278 -4.0404769339797495 3.4211128434850964 -4.0386495146858685 3.4221375645844687 -4.0276963847125735 C 3.423167978578838 -4.016766026319265 3.426908210591548 -4.000626669004145 3.4299197520447047 -3.9845271619540004 C 3.432931293497861 -3.9684162691138627 3.4318154860785444 -3.939382504631636 3.4318154860785444 -3.939382504631636 C 3.427483192986196 -3.940276289146089 3.4236518746535416 -3.935334856289114 3.4198604065858627 -3.9311278068866895 C 3.416063245623187 -3.926909371694272 3.4196326907860017 -3.906437721286804 3.430876158404119 -3.8587540327959946 C 3.4421139331272395 -3.8110760372001815 3.4565169574684225 -3.807603371252307 3.4565169574684225 -3.807603371252307 C 3.4565169574684225 -3.807603371252307 3.4589478236319344 -3.8140420354933653 3.4616177913853 -3.770331987710123 C 3.4642934520336617 -3.7266219399268814 3.4981946417379084 -3.7013227145623686 3.4981946417379084 -3.7013227145623686 C 3.4981946417379084 -3.7013227145623686 3.493332909410885 -3.6884340002902585 3.4773415673656745 -3.6694311167918916 C 3.461344532425467 -3.6504282332935247 3.4527881112457055 -3.5984179446053637 3.4527881112457055 -3.5984179446053637 C 3.4527881112457055 -3.5984179446053637 3.3476004903950978 -3.5283441000932605 3.32297871953517 -3.5118631690783495 C 3.2983626415702396 -3.495376545168442 3.19602146821789 -3.442631873025731 3.19602146821789 -3.442631873025731 C 3.176642853649753 -3.4303124482532725 3.167756244560193 -3.350703004622007 3.1637256749026603 -3.302894072441274 C 3.159695105245128 -3.255073754470548 3.137470043178733 -3.206513360150275 3.133023892186455 -3.1667029454396456 C 3.1285777411941766 -3.1269266880989957 3.1167820627613976 -3.009618893800808 3.115825656401983 -2.984928808200922 C 3.1148692500425685 -2.960261494181023 3.10268076185503 -2.8895158880593312 3.100944428881093 -2.8256131417234505 C 3.099202403012159 -2.761738859862552 3.0981093671728286 -2.6018652896754215 3.100728098871225 -2.5756210437414877 C 3.103341137674626 -2.5493255617525845 3.1053393438184025 -2.4693005367865735 3.120186413969314 -2.439669018329713 C 3.135027791225228 -2.41000903539787 3.1226058943428328 -2.4083182455839047 3.1372878705388447 -2.355431251066281 C 3.151941382259874 -2.302527177863667 3.163628895687719 -2.2984453721511655 3.160446567384668 -2.2724174562270996 C 3.157258546186619 -2.2463724616180434 3.161220801104194 -2.217133752915942 3.1635605809477614 -2.202520091459888 C 3.165900360791329 -2.187883658423848 3.173995657476373 -2.1904853114372553 3.188763027097333 -2.1964457724986066 C 3.20353608961329 -2.202417619349951 3.1867648209535564 -2.1877982649989005 3.199681999700649 -2.183659530336434 C 3.212610564237734 -2.1795264885689645 3.2332416157051047 -2.1867166149495625 3.243460362223849 -2.187781186313911 C 3.2536734158475973 -2.1888343718882664 3.301749914093166 -2.168499350960715 3.301749914093166 -2.168499350960715 C 3.301749914093166 -2.168499350960715 3.3103974215928726 -2.166700396141816 3.3061334432404825 -2.1879633589537995 C 3.3018694648880933 -2.209192164395804 3.339841074514848 -2.2891317959368673 3.3413781561639073 -2.3101442713690044 C 3.3429209307079626 -2.331156746801141 3.314513384675353 -2.3151255544909546 3.3681347626475273 -2.310861576138565 C 3.4217561406197023 -2.3066203693661613 3.4177483425421555 -2.3344016969491546 3.4959687197942717 -2.402613964797397 C 3.5741947899413837 -2.4708091539606505 3.649722427860148 -2.6008918046310177 3.6714920583268214 -2.637850078948393 C 3.693273074583488 -2.6748140461607646 3.6911610105397807 -2.6763340491248346 3.7002867212191943 -2.66799395795494 C 3.7094067390036116 -2.659648173890049 3.775472785438168 -2.601125213325875 3.841903177152502 -2.4771908892517436 C 3.9083449546568274 -2.3532281007026308 3.9450982847543288 -2.3074856894056324 3.971746726233016 -2.301348748599389 C 3.9984008606066985 -2.2952288864781356 4.047621630746567 -2.30858441813996 4.063049376187123 -2.2942041653787633 C 4.078482814522674 -2.279789755247587 4.086680583317657 -2.1836936877064144 4.099404203634867 -2.1933716092004896 C 4.112133516847075 -2.203083688064544 4.193678544777156 -2.251348051844998 4.207683066468583 -2.2566139797167746 C 4.221704666845 -2.2619083720635333 4.207853853318478 -2.260974737284105 4.212630192220554 -2.271688765667546 C 4.217400838227634 -2.282408486945984 4.234354279527255 -2.2882835545823874 4.234354279527255 -2.2882835545823874 M 3.360198867022386 -2.801071071393475 C 3.3561967618398354 -2.7728855482657293 3.3482551733196972 -2.7179377257593664 3.3423630269983042 -2.697101730072122 C 3.3364651877819145 -2.6762315770148977 3.3276753579072955 -2.6743813861410306 3.3223923513505293 -2.6317245239321436 C 3.31711503768876 -2.5890448901432705 3.3084732230840506 -2.5537603269548708 3.3083081291291516 -2.5494052622825367 C 3.3081430351742527 -2.5450558905052 3.30950363707842 -2.5428071969815758 3.3079437838493746 -2.539966442378315 C 3.3063839306203295 -2.5371313806700506 3.299432905829585 -2.545391771309994 3.3083309007091377 -2.662790651928126 C 3.3172288955886904 -2.7802009183362513 3.3169784082088443 -2.792548807583692 3.31824223089807 -2.8251975603887054 C 3.319506053587297 -2.8578690847737054 3.3242539280143903 -2.9056438595844587 3.3248232175140418 -2.9201778205105615 C 3.3253811212237006 -2.934677624066685 3.3317002346698317 -2.96640982077726 3.3317002346698317 -2.96640982077726 C 3.3317002346698317 -2.96640982077726 3.359373397247891 -2.8926640589924046 3.364952434344476 -2.8677462575926587 C 3.3705314714410606 -2.8428056846129266 3.3641952793099392 -2.8292565945212207 3.360198867022386 -2.801071071393475 M 4.023813943871142 -2.6329541892513912 C 4.01850816573439 -2.6084462762913936 4.018542323104369 -2.6280867640293706 4.0130429865377355 -2.655179251317785 C 4.007549342866098 -2.68228881729119 4.005761773837192 -2.6736128453165007 3.9999037848857784 -2.6913120558606662 C 3.9940457959343645 -2.7089714161398555 3.9943645980541698 -2.735847573418403 3.9982414595467968 -2.761135412992922 C 4.00212401393442 -2.7864289454624385 4.0080104673608155 -2.9237814230433554 4.0080104673608155 -2.9237814230433554 C 4.0080104673608155 -2.9237814230433554 4.025191624460298 -2.8189638403675215 4.030315229957162 -2.7824268402798884 C 4.035444528349022 -2.7458841472972586 4.02912541490289 -2.657467795106384 4.023813943871142 -2.6329541892513912" fill="#0e0904" transform="matrix(1,0,0,1,0,0)" fill-rule="nonzero"></path></g><g clip-path="url(#b34b9aca8-50b4-436a-bcf7-e8291f7ee158704b2dd1-2017-418f-ba3b-b24545afd60c)"><path d=" M 3.6051242884574504 -3.494203808799161 C 3.6051242884574504 -3.494203808799161 3.6222257450269817 -3.502327569959188 3.6391279502716345 -3.500557079615272 C 3.6560244626212905 -3.4987865892713557 3.674509292674975 -3.505447276417278 3.674509292674975 -3.505447276417278 C 3.674509292674975 -3.505447276417278 3.692641163238875 -3.495188679633558 3.6867888671824582 -3.4854310576095315 C 3.6809422640210374 -3.475673435585505 3.667006057069568 -3.4166950434216092 3.667006057069568 -3.4166950434216092 C 3.667006057069568 -3.4166950434216092 3.7061048599056328 -3.3297873084048115 3.715059783735151 -3.2858438519267126 C 3.7240090146696727 -3.241900395448613 3.7249711139240835 -3.2207114402715846 3.7249711139240835 -3.2207114402715846 C 3.7249711139240835 -3.2207114402715846 3.6933300035334535 -2.923587864613474 3.6870621261422905 -2.8940929756365303 C 3.6870621261422905 -2.8940929756365303 3.626831297079162 -3.1169299644851165 3.6201592241432463 -3.1354147945388005 C 3.6201592241432463 -3.1354147945388005 3.620455254683065 -3.283595158403089 3.622903199531567 -3.332941172232881 C 3.6253511443800686 -3.3822928789576694 3.636053786973516 -3.421568161538626 3.636053786973516 -3.421568161538626 C 3.636053786973516 -3.421568161538626 3.593476625294581 -3.4775065477743827 3.6051242884574504 -3.494203808799161" fill="#bfbe5f" transform="matrix(1,0,0,1,0,0)" fill-rule="nonzero"></path></g><g clip-path="url(#b34b9aca8-50b4-436a-bcf7-e8291f7ee158704b2dd1-2017-418f-ba3b-b24545afd60c)"><path d=" M 2.190286173658569 -1.1589668954387196 C 2.190286173658569 -1.1589668954387196 2.131734748619412 -1.0954569588575982 2.158753228272872 -1.0421316114252424 C 2.1857830937163256 -0.9888404213628657 2.2454560190697954 -0.980898832842727 2.272485884513249 -0.993377658675088 C 2.2995100570617053 -1.0058450987174559 2.302891636689635 -1.0376000670080163 2.311897796574122 -1.0738922726107991 C 2.320909649353605 -1.1101844782135823 2.190286173658569 -1.1589668954387196 2.190286173658569 -1.1589668954387196" fill="#bfbe5f" transform="matrix(1,0,0,1,0,0)" fill-rule="nonzero"></path></g><g clip-path="url(#b34b9aca8-50b4-436a-bcf7-e8291f7ee158704b2dd1-2017-418f-ba3b-b24545afd60c)"><path d=" M 2.133590632388276 -0.6217568590925828 C 2.133590632388276 -0.6217568590925828 2.1763784311820826 -0.566177125241607 2.201148217311919 -0.5593741157207717 C 2.2259236963367526 -0.5525711061999363 2.2405601293727924 -0.5503110268863196 2.2551965624088326 -0.5593741157207717 C 2.2698329954448724 -0.5684542832402131 2.2912325877367725 -0.5888576189077228 2.302493134039879 -0.6387615364471735 C 2.313759373237982 -0.6886654539866233 2.318256760285229 -0.7828031656489953 2.316013759656602 -0.8168295990431651 C 2.313759373237982 -0.8508617253323321 2.302493134039879 -0.8769408773113674 2.302493134039879 -0.909840117496227 C 2.302493134039879 -0.9427222789960976 2.3069962139821225 -1.0515932029094506 2.3069962139821225 -1.0515932029094506 C 2.3069962139821225 -1.0515932029094506 2.2946084744697055 -1.015306690201664 2.267584301921249 -1.0130352250980543 C 2.2405601293727924 -1.0107808386794344 2.2079113765677785 -1.0187053485145836 2.198899523788296 -1.0379928767627762 C 2.1898876710088127 -1.0572576334309827 2.183135897542946 -1.0912897597201496 2.183135897542946 -1.0912897597201496 C 2.183135897542946 -1.0912897597201496 2.203402603730539 -1.0742907752605557 2.2259236963367526 -1.0640720287418115 C 2.248450481837962 -1.0538703609080566 2.3036146343541923 -1.0493274307008371 2.3216326470181623 -1.0504546239101473 C 2.3396506596821323 -1.0515932029094506 2.3666691393355923 -1.0776780477834822 2.3880687316274924 -1.1173859903841739 C 2.409462631024396 -1.1570711614048799 2.4421170767244056 -1.2262569142975268 2.464643862225615 -1.2840967274621193 C 2.4871592619368323 -1.3419365406267114 2.5130619341709752 -1.396377695478384 2.517565014113219 -1.4190581891444998 C 2.5220624011604658 -1.4417443757056123 2.5288255604163252 -1.4519574293293602 2.532201447149259 -1.4734993439961728 C 2.5355830267771884 -1.495046951557982 2.549097959498915 -1.509791549598956 2.553595346546162 -1.5472223342010416 C 2.558092733593409 -1.5846474259081318 2.558092733593409 -1.6322741854489755 2.558092733593409 -1.6470244763849462 C 2.558092733593409 -1.6617690744259197 2.562601506430649 -1.8568418143765024 2.5614800061163354 -1.885192431459147 C 2.5603528129070257 -1.9135544343317847 2.573856359838759 -2.0167552348286084 2.578365132675999 -2.050770282432786 C 2.582873905513239 -2.084802408721952 2.5618557371861055 -2.1914075604266916 2.5663474313383556 -2.232242696236694 C 2.5708562041755956 -2.2730721391516995 2.472169869411008 -2.6378899292133693 2.4642909027358315 -2.6934582772743525 C 2.456400550270662 -2.7490323182303316 1.826208459946445 -2.735802030258431 1.826208459946445 -2.735802030258431 C 1.826208459946445 -2.735802030258431 1.7563680241291995 -2.3842145281686613 1.7484947503490191 -2.332056224210591 C 1.7406043978838495 -2.279886534462528 1.750749136767639 -2.194823297424601 1.7653798769086826 -2.065520573368756 C 1.7800163099447224 -1.9362349279979 1.811549255330419 -1.7457051182545364 1.810422062121109 -1.6889924982992546 C 1.8092948689117991 -1.6322741854489755 1.8295615750993923 -1.5154673659104816 1.8351918482509457 -1.4587604388501951 C 1.8408221214024991 -1.4020478188949133 1.8498339741819823 -1.3521439013554626 1.8487067809726725 -1.29770274650379 C 1.847585280658359 -1.24327297744211 1.8802340334633725 -1.1457309145718222 1.8847371134056157 -1.0912897597201496 C 1.8892345004528628 -1.0368486048684762 1.9106340927447625 -0.946138015994006 1.915148558476999 -0.89508413366526 C 1.9196459455242458 -0.8440587158114963 1.926403411885109 -0.7884789819605205 1.9275306050944188 -0.7465166529412088 C 1.9286521054087322 -0.7045543239218963 1.9230161393621827 -0.6830010234650903 1.9534275844335658 -0.6761980139442549 C 1.9660145752708602 -0.6733800309209803 1.9708820004928806 -0.6721219011267507 1.9720262723871802 -0.6705563550027089 C 1.973637361671194 -0.6683532046390579 1.967790758509773 -0.6655523003007726 1.9658153239459824 -0.6569047928010661 C 1.9624337443180522 -0.6421772734450819 1.9432885384447725 -0.5752572927610475 1.9354152646645921 -0.5219490240136819 C 1.9275306050944188 -0.4686521410563085 1.9354152646645921 -0.4675078691620085 1.9354152646645921 -0.4448273754958927 C 1.9354152646645921 -0.4221468818297778 1.9230161393621827 -0.38698756233130016 1.9320336850366624 -0.35636548014504665 C 1.9410455378161455 -0.32574339795879315 1.9973425764366823 -0.26336065458698066 2.0649001613603257 -0.256551952171149 C 2.1324634391789656 -0.24974894265031367 2.160614804936732 -0.2520147148589267 2.176378431182082 -0.2747065943150355 C 2.192142057427432 -0.2973757021911583 2.1910148642181224 -0.34389234720768247 2.179760010810012 -0.38585467622699454 C 2.168493771611909 -0.42781131235130987 2.1662450780882856 -0.4538961572253415 2.162869191355352 -0.4731893783685308 C 2.1594876117274224 -0.4924598279317345 2.147099872215006 -0.5208161379093754 2.133590632388276 -0.6217568590925828 M 2.1516086450522454 -2.1188288421161223 C 2.1516086450522454 -2.1188288421161223 2.219166229975889 -1.897671257291508 2.228178082755372 -1.8273583111895513 C 2.237184242639859 -1.7570339792976015 2.250693482466589 -1.692379770822181 2.2574509488274526 -1.6799237165698062 C 2.264202722293319 -1.6674335049474527 2.2709601886541826 -1.64476439707133 2.264202722293319 -1.6232110966145243 C 2.2574509488274526 -1.6016521032627216 2.2461904025243458 -1.5857860049074342 2.247323288628652 -1.5664927837642453 C 2.248450481837962 -1.547222334201042 2.2461904025243458 -1.5132015937018686 2.2405601293727924 -1.4973241095565881 C 2.234929856221239 -1.4814409325163114 2.233802663011929 -1.4791808532026947 2.237184242639859 -1.4632862903724249 C 2.2405601293727924 -1.4474201920171375 2.233802663011929 -1.4213239613531128 2.228178082755372 -1.3941062303747747 C 2.2225478096038187 -1.3668828065014402 2.2292995830696856 -1.3510167081461528 2.2259236963367526 -1.3249204774821277 C 2.2225478096038187 -1.298835632608096 2.219166229975889 -1.2693407436311523 2.2157846503479592 -1.255751803274471 C 2.212414456510022 -1.2421400913378036 2.198899523788296 -1.1978949114248887 2.198899523788296 -1.1978949114248887 C 2.198899523788296 -1.1978949114248887 2.1820030114386393 -1.1978949114248887 2.1707481580305292 -1.1820288130696017 C 2.1594876117274224 -1.1661399431343287 2.123457279294479 -1.1400664840502897 2.123457279294479 -1.1400664840502897 C 2.123457279294479 -1.1400664840502897 2.1279603592367224 -1.2069750789443305 2.123457279294479 -1.273895059628364 C 2.1189485064572393 -1.340815040312398 2.1166998129336156 -1.4156652237265765 2.117832699037922 -1.4485473852264472 C 2.1189485064572393 -1.481440932516311 2.1245787796087927 -1.5664927837642453 2.123457279294479 -1.6152808938843788 C 2.1223243931901727 -1.6640291537395364 2.1245787796087927 -1.8409700231262187 2.1257116657130988 -1.8783951148333085 C 2.1268331660274127 -1.9158202065403978 2.139220905539829 -1.9986062855797186 2.140348098749139 -2.023558244349444 C 2.1414695990634525 -2.0485215889091624 2.1516086450522454 -2.1188288421161223 2.1516086450522454 -2.1188288421161223" fill="#0e0904" transform="matrix(1,0,0,1,0,0)" fill-rule="nonzero"></path></g><g clip-path="url(#b34b9aca8-50b4-436a-bcf7-e8291f7ee158704b2dd1-2017-418f-ba3b-b24545afd60c)"><path d=" M 2.2168719932922936 -2.6848278484596357 L 2.171659021229972 -2.568601704210786 L 2.1954040862604356 -2.5426762603966564 L 2.24428897559551 -2.581558733222854 Z" fill="#bfbe5f" transform="matrix(1,0,0,1,0,0)" fill-rule="nonzero"></path></g><g clip-path="url(#b34b9aca8-50b4-436a-bcf7-e8291f7ee158704b2dd1-2017-418f-ba3b-b24545afd60c)"><path d=" M 1.5473476914371551 -2.729215350747463 C 1.5450420689635664 -2.707764522400595 1.5383472244476648 -2.6467993098829155 1.538239059442731 -2.6036528587043284 C 1.5381479731227867 -2.560472250155762 1.5606178296740314 -2.3933971677980406 1.5698915556233544 -2.3565470584855985 C 1.5791538957826843 -2.3196741775931713 1.5958340781224731 -2.2119759900491007 1.5965855402620133 -2.2051217444732965 C 1.5973426952965497 -2.198273191792489 1.6079827160450362 -2.165874926367322 1.6079827160450362 -2.165874926367322 L 1.6182242341437667 -2.167588487761273 L 1.6164309722198644 -2.134751869421375 C 1.6161292487850492 -2.1290931317948387 1.6228127075109577 -2.127584514620762 1.6228127075109577 -2.127584514620762 L 1.619044011023265 -2.05848984804806 C 1.618241312828756 -2.043779407377065 1.620928359267111 -2.0515843664172873 1.6298149683566712 -2.028380126411492 C 1.6386958845512347 -2.005170193510701 1.6430054060635964 -2.001526740712931 1.6521368096380065 -1.9828369664393724 C 1.661273906107413 -1.9641528850608099 1.6661470242244298 -1.9502736070593065 1.6747091382991883 -1.9418424295694674 C 1.6832769452689436 -1.9334055591846324 1.6868293117467688 -1.9366220448576636 1.6930801104529423 -1.9271832249534415 C 1.6993366020541123 -1.9177500979442161 1.6968431140456386 -1.9133494901119104 1.7136428471803544 -1.9113000479131648 C 1.7304425803150703 -1.9092107554494437 1.7508686875625656 -1.9114936063430465 1.7561915443843072 -1.9055274523866985 C 1.7614973225210595 -1.8995556055353546 1.7758661894922632 -1.8942042842386306 1.7792420762251966 -1.8940278044937382 C 1.782606577168137 -1.8938285531688606 1.809590899451618 -1.8923540933647631 1.8080253533275765 -1.9049296984120647 C 1.8064541143085384 -1.9175109963543626 1.7982848099885391 -1.9122906116425584 1.7861475578559693 -1.9379427964968547 C 1.774015998618396 -1.9636177529311376 1.804706395544608 -1.9267107146687308 1.8072454267130538 -1.9526703158528393 C 1.809790150776496 -1.978681153091916 1.8142419946637707 -2.0397488377195327 1.8119249864001892 -2.059190074132631 C 1.809590899451618 -2.078642696335723 1.814088286498865 -2.098841087783358 1.803453958645375 -2.11077908859105 C 1.7928367094768745 -2.122711396503745 1.768886700226536 -2.159254089486375 1.7881286853147564 -2.160483754805622 C 1.8073592846129842 -2.161684955649887 1.9268133003248584 -2.118703598426199 1.983531613175137 -2.207592460901784 C 2.0402556189204124 -2.2964585517973832 2.095089583526845 -2.392241510113747 2.111496506906801 -2.4242583515741476 C 2.127903430286757 -2.456315043299524 2.20550897487925 -2.700762261554881 2.20550897487925 -2.700762261554881 C 2.20550897487925 -2.700762261554881 2.247511154163537 -2.4576528736237044 2.2715351710488303 -2.401799880812896 C 2.295553495039127 -2.345941195107091 2.341273134756139 -2.2536764458985723 2.364773405301753 -2.2296638148032724 C 2.388279368742363 -2.205639797917979 2.4118422611329384 -2.182765745821982 2.435137587458678 -2.1758204139262336 C 2.458438606679414 -2.168829538870513 2.4877968661764416 -2.1694842217951122 2.4877968661764416 -2.1694842217951122 C 2.4877968661764416 -2.1694842217951122 2.5001789127938623 -2.1483578884630457 2.50062295860359 -2.135827826575716 C 2.501072697308315 -2.1233091504783794 2.5054391477706415 -2.082160905443569 2.5054106832956595 -2.0787736329206425 C 2.5051772746008023 -2.0537989025709313 2.5094469458481887 -2.0081361918038843 2.513950025790432 -2.007891397319035 C 2.5184417199426816 -2.0076352170441916 2.538298537690526 -2.020176664721514 2.54404266874201 -2.022123634810322 C 2.5497867997934938 -2.0240762977941267 2.5638539433298817 -2.013071931765863 2.5722794279247245 -2.0228238608948934 C 2.58069921962457 -2.0325757900239236 2.5889482244745206 -2.0389461395250237 2.5947492844759688 -2.042025995718139 L 2.6005560373724146 -2.0451115448062493 C 2.6005560373724146 -2.0451115448062493 2.61423606404904 -2.047758740979629 2.614469472743897 -2.07275055001433 C 2.6146971885437575 -2.0977195874690446 2.6202420682703633 -2.1167395496524013 2.633791158362069 -2.1375470808646635 C 2.647323169768785 -2.1583830765519085 2.6415050310823465 -2.175769177871265 2.6379982077644932 -2.194094606865047 C 2.634789332052116 -2.2111568136832678 2.6323389782582427 -2.22835297871888 2.6306543732189893 -2.2456323852684967 C 2.6292140707848706 -2.260485148314405 2.625069643227408 -2.2879761382525756 2.627819311510725 -2.296896904712115 C 2.6305519011090515 -2.305846135646636 2.6385504185791553 -2.3076735549405174 2.6385504185791553 -2.3076735549405174 C 2.6385504185791553 -2.3076735549405174 2.658122591577174 -2.480390296239786 2.662090539389745 -2.5119630918904576 C 2.666069872992309 -2.5435301946461335 2.6743530352122384 -2.6748425106357483 2.6722352782735346 -2.760167620843515 C 2.6701232142298275 -2.8454471878913097 2.6580542768372157 -2.9551720460541393 2.6563805657082407 -3.0279557085845834 C 2.6547068545792647 -3.1007393711150275 2.6408560410527437 -3.2809707338096956 2.637639555379713 -3.325455015312464 C 2.634434455496675 -3.369927911025239 2.6099322354316747 -3.4791859517983545 2.611241601280873 -3.502970867093794 C 2.612528195550085 -3.5267330108092474 2.575791944137574 -3.638951356980551 2.5715450444701737 -3.6437390816726203 C 2.567292451907777 -3.6485097276797 2.579617569575232 -3.6470523465605917 2.524470495743991 -3.669823926546652 C 2.524470495743991 -3.669823926546652 2.4601521680733653 -3.703656801510941 2.439412951601061 -3.709344003612459 C 2.418679428023754 -3.715036898608974 2.357788223141029 -3.7290129558254184 2.328623522073883 -3.7457728386951583 C 2.2994702067967294 -3.7625327215648987 2.266730367671772 -3.7688632208010233 2.258230875441975 -3.778432977290165 C 2.2497313832121786 -3.78797996219932 2.2312351673685007 -3.807199175707555 2.226902874276153 -3.8104555116455616 C 2.2225648882888085 -3.8137346191635544 2.220555296355039 -3.832014504997364 2.220555296355039 -3.832014504997364 C 2.220555296355039 -3.832014504997364 2.2381975779492387 -3.8522242822349924 2.245017666155064 -3.8669973447509487 C 2.251837754360889 -3.881781793056898 2.2543198565793694 -3.9066312797166862 2.255059932928916 -3.920214527178371 C 2.255800009278463 -3.933814853325045 2.260473876070602 -3.957400517295607 2.260473876070602 -3.957400517295607 C 2.260473876070602 -3.957400517295607 2.2835016363315046 -3.98679862705761 2.2864277843597134 -3.9991180518300684 C 2.2893539323879226 -4.0114659410775095 2.2983202420074336 -4.0518456452877905 2.298935074667057 -4.063180199225852 C 2.299561293116674 -4.074509060268917 2.3018555298002696 -4.095954195720789 2.28605774618494 -4.095709401235939 L 2.288830186048243 -4.146660811454748 C 2.28932546791294 -4.155718207394203 2.2946255531546953 -4.170189546475344 2.294989898434472 -4.17697547731119 C 2.2953713223992387 -4.183761408147036 2.296481436923559 -4.2041647438145455 2.294597088679713 -4.2110645325503215 C 2.2927241262258593 -4.21799278576108 2.2995100570617053 -4.239198819623099 2.302014930860172 -4.243616506140395 C 2.3045084188686453 -4.248005728182708 2.309910976220338 -4.285203104089937 2.3002899836762274 -4.294824096634047 C 2.2906689911321174 -4.304445089178157 2.2877257644189193 -4.312563157443187 2.275856078351185 -4.322298007887229 C 2.2639750064934585 -4.332032858331269 2.2654096160325805 -4.33763466700784 2.25229318596061 -4.345189138668215 C 2.2391653700986462 -4.352726531643601 2.2206691542549692 -4.365091499576032 2.2141735610639453 -4.370004467958024 C 2.207666582082929 -4.37489466476003 2.1844338776021512 -4.3830013472350675 2.170998645410376 -4.384874309688922 C 2.1575691061135966 -4.386752965037771 2.1137907435903966 -4.390322410200586 2.100042402173813 -4.386530942132907 C 2.086311139442219 -4.382739474065228 2.0816201939650907 -4.379608381817145 2.0691926041876982 -4.379152950217423 C 2.0567707073053025 -4.378697518617702 2.0429085079887885 -4.3726516641314035 2.0369708185074233 -4.367306035729676 C 2.031044514816051 -4.361966100222945 2.0174897318293494 -4.361567597573189 2.003934948842647 -4.361186173608422 C 1.9903801658559446 -4.360799056748659 1.979705987737479 -4.351160985519559 1.9722881455570203 -4.339080662336955 C 1.9648532246915715 -4.326988953364356 1.9652403415513344 -4.313337391162714 1.9548166508127154 -4.308236557245836 C 1.9443872671791003 -4.303135723328959 1.9497670529508067 -4.298302455476918 1.9369580392086483 -4.291055400146354 C 1.924154718361486 -4.283808344815791 1.9089205313508117 -4.273282181967234 1.9086188079159963 -4.267629137235695 C 1.9083113915861845 -4.261959013819166 1.8908968257918453 -4.252719445239822 1.8938969814550086 -4.245739955974095 C 1.896897137118172 -4.238743388023378 1.8989238077369315 -4.193205920946254 1.8988099498370012 -4.1704969628051565 C 1.8986960919370708 -4.1477823117690615 1.9072752846968188 -4.11891933413673 1.909034389250742 -4.109731001612355 C 1.9107991866996616 -4.10054266908798 1.9022883086798716 -4.110089653997136 1.8918589250462565 -4.105005898765247 C 1.8814352343076373 -4.099887986163381 1.8821980822371704 -4.072579168865098 1.8889555485980336 -4.051777330547832 C 1.8957187078538935 -4.030958413545577 1.9021630649899486 -4.024923944849271 1.903848161908917 -4.014597033325593 C 1.9055389517228818 -4.004281507591908 1.9133040604981284 -3.981134196536078 1.925418541050712 -3.97593658340426 C 1.9375387144982927 -3.9707275844824483 1.9494767153059844 -3.962085769877739 1.9494767153059844 -3.962085769877739 C 1.9494767153059844 -3.962085769877739 1.9524484064941654 -3.9130984084327274 1.9538887089282837 -3.8982456453868197 C 1.955340397152395 -3.883398575235909 1.9692196751538984 -3.869018322474712 1.9692196751538984 -3.869018322474712 L 1.963179513562596 -3.8409409643519 C 1.963179513562596 -3.8409409643519 1.954258747103057 -3.8221316392834144 1.9443929600740966 -3.806772208582817 C 1.9345328659401329 -3.7914127778822193 1.9098257016552576 -3.751887007921416 1.885164080530355 -3.7339486957873973 C 1.860502459405452 -3.715993304968389 1.6456810667119588 -3.5608960736833346 1.632940367709758 -3.5547875973520737 C 1.6202053616025542 -3.54868481391581 1.6047890019519915 -3.534759992754334 1.5994490664452603 -3.478258009913923 C 1.5941148238335259 -3.421761719968508 1.578385354958155 -3.2159123297895227 1.5725444446917305 -3.170807522732134 C 1.566703534425306 -3.1257027156747457 1.5653486254161355 -2.99743040561327 1.5597468167395647 -2.9568400642881185 C 1.554156393852987 -2.9162668016479563 1.555858569456945 -2.8855080899817853 1.5520101724393007 -2.8561726020647438 C 1.5481617754216566 -2.8268655786226846 1.5471655187972666 -2.808739400953781 1.5484350343814894 -2.790505058279943 C 1.5498232393754283 -2.7700815843538487 1.5494594620301585 -2.7495767314785824 1.5473476914371551 -2.729215350747463 M 1.759624360067206 -2.879143433375682 C 1.7672813038375186 -2.909008360527399 1.7724219880193715 -3.0586802628807748 1.7724219880193715 -3.0586802628807748 C 1.777932710375998 -3.049269907451536 1.8261344523114904 -2.9405925419680647 1.8324820302326046 -2.9190392415112587 C 1.8388239152587227 -2.8974802481594564 1.8286108616349743 -2.848071612484703 1.817970840886488 -2.8183831650778775 C 1.8073251272430049 -2.788671946091066 1.8032604002154935 -2.769202245202984 1.797607355483954 -2.748315013460771 C 1.7919713894374043 -2.7274220888235607 1.7854245601914118 -2.662648329553213 1.7831189377178231 -2.620384277099086 C 1.7808133152442347 -2.5781316104349514 1.7689265504915117 -2.5530316363953167 1.7628636173202232 -2.524584240097732 C 1.7568006841489345 -2.49613115090515 1.7485232148240017 -2.426945398012503 1.7485232148240017 -2.426945398012503 C 1.7485232148240017 -2.426945398012503 1.745266878885995 -2.4498365287934902 1.7444983380614654 -2.463505169680122 C 1.7437411830269292 -2.477185196356748 1.7447886757062878 -2.5240548008630554 1.7474415647746637 -2.5451355910351507 C 1.7500944538430399 -2.56617653094227 1.7481531766492284 -2.6132396938784597 1.7477945242644477 -2.6344514206354743 C 1.7474415647746637 -2.6556688402874857 1.7498439664631933 -2.6994642814956755 1.750749136767639 -2.7160761490955063 C 1.7516543070720847 -2.732682323800341 1.7519958807718758 -2.8492728133289678 1.759624360067206 -2.879143433375682" fill="#0e0904" transform="matrix(1,0,0,1,0,0)" fill-rule="nonzero"></path></g><g clip-path="url(#b34b9aca8-50b4-436a-bcf7-e8291f7ee158704b2dd1-2017-418f-ba3b-b24545afd60c)"><path d=" M 2.1633132371650805 -3.6563431511949043 C 2.1633132371650805 -3.6563431511949043 2.1211004207659223 -3.6716798103155157 2.109851260252808 -3.6721295490202404 C 2.098602099739695 -3.672596366409955 2.0680767967683815 -3.6420312131736656 2.0680767967683815 -3.6420312131736656 L 2.1267534654974614 -3.58744773594708 C 2.1267534654974614 -3.58744773594708 2.101254988808071 -3.5135653446823083 2.108519122823624 -3.4133988572186276 C 2.115783256839177 -3.3132039052799636 2.1257344372930853 -3.167511336529152 2.1257344372930853 -3.167511336529152 L 2.214042624479026 -2.896062717305324 L 2.2605649623905464 -3.1575032271252788 C 2.2605649623905464 -3.1575032271252788 2.224819274707429 -3.447260196657899 2.2109741540759043 -3.4955017888583666 C 2.1971290334443796 -3.543737688163838 2.1583490327281196 -3.58844399257147 2.1583490327281196 -3.58844399257147 Z" fill="#bfbe5f" transform="matrix(1,0,0,1,0,0)" fill-rule="nonzero"></path></g><g clip-path="url(#b34b9aca8-50b4-436a-bcf7-e8291f7ee158704b2dd1-2017-418f-ba3b-b24545afd60c)"><path d=" M 1.9707112136429854 -0.6724122387715727 C 1.9707112136429854 -0.6724122387715727 2.057414004439909 -0.630819947927034 2.124971589363552 -0.6777009382233352 C 2.124971589363552 -0.6777009382233352 2.075426324208882 -0.5657843154868467 1.9707112136429854 -0.6724122387715727" fill="#bfbe5f" transform="matrix(1,0,0,1,0,0)" fill-rule="nonzero"></path></g></g><g><path d=" M 0.10693359375 0 L 0.570556640625 0 L 0.570556640625 0.1494140625 L 0.296630859375 0.1494140625 L 0.296630859375 0.523681640625 L 0.50830078125 0.523681640625 L 0.50830078125 0.673095703125 L 0.296630859375 0.673095703125 L 0.296630859375 1.1015625 L 0.577880859375 1.1015625 L 0.577880859375 1.2509765625 L 0.10693359375 1.2509765625 L 0.10693359375 0 M 0.71484375 0 L 0.904541015625 0 L 0.904541015625 1.1015625 L 1.1630859375 1.1015625 L 1.1630859375 1.2509765625 L 0.71484375 1.2509765625 L 0.71484375 0 M 1.283203125 0 L 1.472900390625 0 L 1.472900390625 1.2509765625 L 1.283203125 1.2509765625 L 1.283203125 0 M 1.802490234375 0.1494140625 L 1.60107421875 0.1494140625 L 1.60107421875 0 L 2.19287109375 0 L 2.19287109375 0.1494140625 L 1.9921875 0.1494140625 L 1.9921875 1.2509765625 L 1.802490234375 1.2509765625 L 1.802490234375 0.1494140625 M 2.321044921875 0 L 2.78466796875 0 L 2.78466796875 0.1494140625 L 2.5107421875 0.1494140625 L 2.5107421875 0.523681640625 L 2.722412109375 0.523681640625 L 2.722412109375 0.673095703125 L 2.5107421875 0.673095703125 L 2.5107421875 1.1015625 L 2.7919921875 1.1015625 L 2.7919921875 1.2509765625 L 2.321044921875 1.2509765625 L 2.321044921875 0 M 2.928955078125 0 L 3.176513671875 0 L 3.296630859375 0.484130859375 Q 3.315673828125 0.564697265625 3.32666015625 0.6375732421875 Q 3.337646484375 0.71044921875 3.347900390625 0.77490234375 L 3.353759765625 0.77490234375 Q 3.364013671875 0.71044921875 3.375 0.6375732421875 Q 3.385986328125 0.564697265625 3.405029296875 0.484130859375 L 3.52880859375 0 L 3.771240234375 0 L 3.771240234375 1.2509765625 L 3.593994140625 1.2509765625 L 3.593994140625 0.837158203125 Q 3.593994140625 0.741943359375 3.5958251953125 0.654052734375 Q 3.59765625 0.566162109375 3.6005859375 0.4925537109375 Q 3.603515625 0.4189453125 3.607177734375 0.362548828125 Q 3.61083984375 0.30615234375 3.61376953125 0.273193359375 L 3.599853515625 0.273193359375 L 3.410888671875 1.08984375 L 3.290771484375 1.08984375 L 3.100341796875 0.273193359375 L 3.08642578125 0.273193359375 Q 3.08935546875 0.30615234375 3.093017578125 0.362548828125 Q 3.0966796875 0.4189453125 3.099609375 0.4925537109375 Q 3.1025390625 0.566162109375 3.1043701171875 0.654052734375 Q 3.106201171875 0.741943359375 3.106201171875 0.837158203125 L 3.106201171875 1.2509765625 L 2.928955078125 1.2509765625 L 2.928955078125 0 M 4.122802734375 0 L 4.341064453125 0 L 4.572509765625 1.2509765625 L 4.380615234375 1.2509765625 L 4.34619140625 1.02685546875 L 4.11767578125 1.02685546875 L 4.084716796875 1.2509765625 L 3.89208984375 1.2509765625 L 4.122802734375 0 M 4.32421875 0.884033203125 L 4.236328125 0.2607421875 L 4.228271484375 0.2607421875 L 4.1396484375 0.884033203125 L 4.32421875 0.884033203125 M 4.693359375 0 L 4.899169921875 0 Q 4.934326171875 0 4.9764404296875 0.0029296875 Q 5.0185546875 0.005859375 5.0606689453125 0.0172119140625 Q 5.102783203125 0.028564453125 5.1419677734375 0.05126953125 Q 5.18115234375 0.073974609375 5.2115478515625 0.113525390625 Q 5.241943359375 0.153076171875 5.26025390625 0.2127685546875 Q 5.278564453125 0.2724609375 5.278564453125 0.357421875 L 5.278564453125 0.388916015625 Q 5.278564453125 0.53173828125 5.237548828125 0.6214599609375 Q 5.196533203125 0.711181640625 5.11669921875 0.750732421875 L 5.3173828125 1.2509765625 L 5.11669921875 1.2509765625 L 4.950439453125 0.782958984375 L 4.87939453125 0.782958984375 L 4.87939453125 1.2509765625 L 4.693359375 1.2509765625 L 4.693359375 0 M 4.907958984375 0.64599609375 Q 4.957763671875 0.64599609375 4.9921875 0.635009765625 Q 5.026611328125 0.6240234375 5.0478515625 0.5980224609375 Q 5.069091796875 0.572021484375 5.07861328125 0.5291748046875 Q 5.088134765625 0.486328125 5.088134765625 0.42333984375 L 5.088134765625 0.324462890625 Q 5.088134765625 0.276123046875 5.079345703125 0.240966796875 Q 5.070556640625 0.205810546875 5.0496826171875 0.18310546875 Q 5.02880859375 0.160400390625 4.994384765625 0.1494140625 Q 4.9599609375 0.138427734375 4.907958984375 0.138427734375 L 4.87939453125 0.138427734375 L 4.87939453125 0.64599609375 L 4.907958984375 0.64599609375 M 5.57666015625 0.1494140625 L 5.375244140625 0.1494140625 L 5.375244140625 0 L 5.967041015625 0 L 5.967041015625 0.1494140625 L 5.766357421875 0.1494140625 L 5.766357421875 1.2509765625 L 5.57666015625 1.2509765625 L 5.57666015625 0.1494140625" fill="#0e0904" fill-rule="nonzero"></path></g><g><path d=" M 0.04527698863636363 1.986453302556818 Q 0.05692915482954545 1.986453302556818 0.05992542613636363 1.9954421164772727 Q 0.06292169744318181 2.004430930397727 0.06292169744318181 2.0250719105113637 Q 0.06292169744318181 2.045712890625 0.06858132102272727 2.063690518465909 Q 0.07424094460227272 2.0816681463068183 0.084228515625 2.0939861505681816 Q 0.10453657670454544 2.118622159090909 0.14049183238636362 2.118622159090909 Q 0.1764470880681818 2.118622159090909 0.19775390624999997 2.0921550958806816 Q 0.21906072443181818 2.0656880326704545 0.21906072443181818 2.016083096590909 Q 0.21906072443181818 1.949832208806818 0.16279740767045453 1.8982297585227272 Q 0.1468172940340909 1.8835813210227272 0.1300048828125 1.869265802556818 Q 0.11319247159090909 1.8549502840909091 0.09721235795454544 1.8396360085227272 Q 0.08123224431818181 1.8243217329545454 0.06858132102272727 1.8056782670454545 Q 0.040949041193181816 1.7647292258522727 0.040949041193181816 1.7124609375 Q 0.040949041193181816 1.6588609730113637 0.07257634943181818 1.6259019886363637 Q 0.10387073863636363 1.5932759232954545 0.1511452414772727 1.5932759232954545 Q 0.19176136363636362 1.5932759232954545 0.21772904829545453 1.6205752840909091 Q 0.24669300426136362 1.6518696732954545 0.24436257102272727 1.7071342329545454 Q 0.24402965198863635 1.7097975852272727 0.2441961115056818 1.7127938565340908 Q 0.24436257102272727 1.7157901278409091 0.24353027343749997 1.7241131036931818 Q 0.2426979758522727 1.7324360795454545 0.23653897372159088 1.7389280007102272 Q 0.23037997159090906 1.745419921875 0.22322221235795453 1.745419921875 Q 0.21606445312499997 1.745419921875 0.21107066761363635 1.7389280007102272 Q 0.2060768821022727 1.7324360795454545 0.20774147727272727 1.7217826704545454 Q 0.2120694247159091 1.6974795809659091 0.2120694247159091 1.6849951171875 Q 0.2120694247159091 1.6725106534090908 0.2075750177556818 1.66119140625 Q 0.20308061079545453 1.6498721590909091 0.1947576349431818 1.6412162642045454 Q 0.1767800071022727 1.6229057173295454 0.14814897017045453 1.6229057173295454 Q 0.11652166193181818 1.6229057173295454 0.09654651988636363 1.6445454545454545 Q 0.07457386363636363 1.668515625 0.07457386363636363 1.7034721235795454 Q 0.07457386363636363 1.7384286221590908 0.08223100142045454 1.7599018998579545 Q 0.08988813920454544 1.781375177556818 0.10237260298295454 1.7986869673295454 Q 0.11485706676136363 1.8159987571022727 0.13083718039772727 1.8303142755681818 Q 0.1468172940340909 1.8446297940340908 0.16329678622159088 1.8586123934659091 Q 0.17977627840909088 1.8725949928977272 0.19575639204545453 1.8874098899147727 Q 0.21173650568181818 1.902224786931818 0.2243874289772727 1.9202024147727272 Q 0.2520197088068182 1.960818536931818 0.2520197088068182 2.013752663352273 Q 0.2520197088068182 2.0756756036931816 0.22005948153409088 2.1126296164772724 Q 0.18843217329545453 2.1492507102272724 0.135498046875 2.1492507102272724 Q 0.08622602982954544 2.1492507102272724 0.055264559659090905 2.111297940340909 Q 0.025967684659090908 2.0756756036931816 0.025967684659090908 2.031064453125 Q 0.025967684659090908 1.986453302556818 0.04527698863636363 1.986453302556818 M 0.38618607954545453 1.7023069069602272 Q 0.38601962002840906 1.7204509943181818 0.38601962002840906 1.8482919034090908 Q 0.38601962002840906 1.9761328125 0.3900146484375 2.1172904829545454 Q 0.3903475674715909 2.1279438920454545 0.3838556463068182 2.133603515625 Q 0.3773637251420454 2.1392631392045454 0.3702059659090909 2.1392631392045454 Q 0.36304820667613635 2.1392631392045454 0.35755504261363635 2.1342693536931816 Q 0.35206187855113635 2.1292755681818183 0.3527277166193182 2.1119637784090908 Q 0.3533935546875 2.0946519886363637 0.35405939275568177 2.0640234375 Q 0.35472523082386365 2.033394886363636 0.3553910688920454 1.9987713068181818 Q 0.35672274502840906 1.9301899857954545 0.35672274502840906 1.8707639382102272 Q 0.35672274502840906 1.811337890625 0.35655628551136365 1.7782124467329545 Q 0.3563898259943182 1.7450870028409091 0.35572398792613635 1.7171218039772727 Q 0.35472523082386365 1.6551988636363637 0.35206187855113635 1.6182448508522727 Q 0.35106312144886365 1.6075914417613637 0.35589044744318177 1.6024311967329545 Q 0.3607177734375 1.5972709517045454 0.3683749112215909 1.5972709517045454 Q 0.37603204900568177 1.5972709517045454 0.3826904296875 1.6024311967329545 Q 0.3893488103693182 1.6075914417613637 0.38884943181818177 1.6199094460227272 Q 0.3883500532670454 1.6322274502840908 0.38785067471590906 1.6442125355113637 Q 0.3873512961647727 1.6561976207386362 0.38685191761363635 1.6701802201704545 Q 0.3863525390625 1.6841628196022727 0.38618607954545453 1.7023069069602272 M 0.7590553977272727 1.6175790127840908 Q 0.7570578835227272 1.7833726917613637 0.7570578835227272 1.8521204723011362 Q 0.7570578835227272 1.9208682528409091 0.7572243430397727 1.9529949396306818 Q 0.7573908025568181 1.9851216264204545 0.757723721590909 2.0140855823863637 Q 0.7583895596590908 2.0753426846590908 0.7592218572443181 2.097814719460227 Q 0.7600541548295454 2.1202867542613637 0.758056640625 2.1246147017045454 Q 0.7560591264204545 2.128942649147727 0.7527299360795454 2.1319389204545454 Q 0.7390802556818181 2.144256924715909 0.7237659801136362 2.1342693536931816 Q 0.7177734375 2.1302743252840908 0.7151100852272727 2.122284268465909 Q 0.6858132102272727 2.0363911576704545 0.6445312499999999 1.9356831498579545 Q 0.6032492897727272 1.8349751420454545 0.5869362571022727 1.7933602627840908 Q 0.5573064630681818 1.7177876420454545 0.5353338068181818 1.6548659446022727 L 0.5396617542613635 2.1192879971590908 Q 0.5396617542613635 2.129608487215909 0.5343350497159091 2.1346022727272724 Q 0.5290083451704545 2.139596058238636 0.5221835049715908 2.139596058238636 Q 0.5153586647727272 2.139596058238636 0.5095325816761362 2.134102894176136 Q 0.5037064985795454 2.128609730113636 0.5040394176136362 2.117623401988636 Q 0.5073686079545454 2.026070667613636 0.5073686079545454 1.9088831676136362 L 0.5073686079545454 1.7114621803977272 Q 0.5073686079545454 1.6598597301136362 0.5067027698863635 1.6225727982954545 Q 0.5067027698863635 1.6102547940340908 0.5141934481534091 1.6037628728693183 Q 0.5216841264204545 1.5972709517045454 0.5300071022727272 1.5972709517045454 Q 0.5486505681818181 1.5972709517045454 0.5546431107954545 1.6149156605113637 Q 0.5606356534090908 1.6325603693181816 0.5716219815340908 1.662356622869318 Q 0.5826083096590908 1.6921528764204545 0.5962579900568181 1.7286075106534091 Q 0.6099076704545454 1.7650621448863637 0.6255548650568181 1.8058447265625 Q 0.6412020596590908 1.8466273082386362 0.6568492542613635 1.8870769708806818 Q 0.6724964488636362 1.9275266335227272 0.6871448863636362 1.9654794034090908 Q 0.7017933238636362 2.0034321732954545 0.713778409090909 2.034393643465909 Q 0.7257634943181817 2.0653551136363637 0.7340864701704545 2.0873277698863637 Q 0.7344193892045454 2.088326526988636 0.7347523082386362 2.0889923650568183 Q 0.732088955965909 2.023740234375 0.7304243607954545 1.9468359375 Q 0.728759765625 1.8532856889204545 0.7275945490056817 1.8066770241477272 Q 0.7264293323863635 1.760068359375 0.7252641157670454 1.7122944779829545 Q 0.7240988991477272 1.6645205965909091 0.7224343039772727 1.6175790127840908 Q 0.7224343039772727 1.6069256036931816 0.7282603870738635 1.6017653586647727 Q 0.7340864701704545 1.5966051136363637 0.7410777698863635 1.5966051136363637 Q 0.7480690696022727 1.5966051136363637 0.7535622336647727 1.6017653586647727 Q 0.7590553977272727 1.6069256036931816 0.7590553977272727 1.6175790127840908 M 1.048861416903409 2.001767578125 Q 1.048861416903409 1.99078125 1.054354580965909 1.984622247869318 Q 1.059847745028409 1.9784632457386362 1.0670055042613635 1.9784632457386362 Q 1.074163263494318 1.9784632457386362 1.079656427556818 1.9836234907670454 Q 1.085149591619318 1.9887837357954545 1.0844837535511362 1.9994371448863635 Q 1.081154563210227 2.066686789772727 1.048195578835227 2.107635830965909 Q 1.0165682705965908 2.146920276988636 0.9689608487215907 2.146920276988636 Q 0.8790727095170453 2.146920276988636 0.8527721058238635 2.012420987215909 Q 0.8427845348011362 1.9628160511363635 0.8427845348011362 1.8953999467329545 Q 0.8427845348011362 1.8279838423295454 0.851107510653409 1.7752161754261362 Q 0.8594304865056817 1.7224485085227272 0.876409357244318 1.6834969815340908 Q 0.9126975319602271 1.6002672230113637 0.9796142578124998 1.6002672230113637 Q 1.0315496271306817 1.6002672230113637 1.0565185546874998 1.6412162642045454 Q 1.0828191583806817 1.6848286576704545 1.0828191583806817 1.7837056107954545 Q 1.0828191583806817 1.7946919389204545 1.077825372869318 1.8001851029829545 Q 1.0728315873579544 1.8056782670454545 1.0658402876420454 1.8056782670454545 Q 1.0505260120738635 1.8056782670454545 1.0505260120738635 1.7863689630681818 Q 1.0505260120738635 1.6631889204545454 1.0112415660511362 1.6395516690340908 Q 0.997258966619318 1.6312286931818183 0.9786155007102271 1.6312286931818183 Q 0.9599720348011362 1.6312286931818183 0.9451571377840907 1.6417156427556818 Q 0.9303422407670453 1.6522025923295454 0.918856534090909 1.6706795987215908 Q 0.9073708274147726 1.6891566051136362 0.8990478515624999 1.7142919921875 Q 0.8907248757102271 1.7394273792613637 0.8853981711647726 1.7683913352272727 Q 0.8747447620738635 1.8269850852272727 0.8747447620738635 1.8840806995738635 Q 0.8747447620738635 1.9411763139204545 0.8784068714488635 1.9756334339488635 Q 0.8820689808238635 2.010090553977273 0.8887273615056817 2.0345601029829545 Q 0.8953857421874999 2.059029651988636 0.9045410156249999 2.0745103870738637 Q 0.9136962890624999 2.0899911221590908 0.9246826171874999 2.0989799360795454 Q 0.9433260830965907 2.1146271306818183 0.9722900390624998 2.1146271306818183 Q 1.0045831853693181 2.1146271306818183 1.0252241654829544 2.088326526988636 Q 1.0495272549715908 2.0580308948863637 1.048861416903409 2.001767578125 M 1.2064985795454544 1.9564905894886362 L 1.2071644176136362 2.074676846590909 Q 1.2071644176136362 2.0906569602272724 1.2071644176136362 2.1019762073863637 Q 1.207497336647727 2.106969992897727 1.207497336647727 2.110632102272727 Q 1.2913929332386362 2.110632102272727 1.3190252130681817 2.10796875 Q 1.3476562499999998 2.1049724786931816 1.3523171164772725 2.1063041548295454 Q 1.3569779829545452 2.107635830965909 1.3603071732954544 2.110632102272727 Q 1.3669655539772725 2.1166246448863637 1.3669655539772725 2.1237824041193183 Q 1.3669655539772725 2.1309401633522724 1.3606400923295452 2.1361004083806816 Q 1.354314630681818 2.1412606534090908 1.342995383522727 2.140594815340909 Q 1.288396661931818 2.136266867897727 1.244451349431818 2.1390966796875 Q 1.200506036931818 2.1419264914772724 1.1951793323863633 2.1427587890625 Q 1.189852627840909 2.143591086647727 1.1856911399147725 2.1427587890625 Q 1.1815296519886362 2.1419264914772724 1.178200461647727 2.1392631392045454 Q 1.1705433238636362 2.133603515625 1.171209161931818 2.1226171875 Q 1.1762029474431817 2.026403586647727 1.1762029474431817 1.9097154651988635 Q 1.1762029474431817 1.79302734375 1.176369406960227 1.7628981711647727 Q 1.1765358664772725 1.7327689985795454 1.1765358664772725 1.7078000710227272 Q 1.1758700284090906 1.6542001065340908 1.1742054332386362 1.6320609907670454 Q 1.1725408380681817 1.609921875 1.1750377308238633 1.6055939275568183 Q 1.1775346235795452 1.6012659801136362 1.1811967329545452 1.5992684659090908 Q 1.186190518465909 1.5969380326704545 1.1938476562499998 1.5982697088068183 Q 1.207830255681818 1.6006001420454545 1.2308016690340906 1.6006001420454545 Q 1.2750799005681817 1.6006001420454545 1.2912264737215906 1.5987690873579545 Q 1.3073730468749998 1.5969380326704545 1.3120339133522725 1.5984361683238637 Q 1.3166947798295452 1.5999343039772727 1.3196910511363633 1.60259765625 Q 1.3263494318181817 1.6079243607954545 1.3263494318181817 1.6155814985795454 Q 1.3263494318181817 1.6232386363636362 1.3203568892045452 1.628232421875 Q 1.314364346590909 1.6332262073863637 1.3040438565340906 1.6327268288352272 Q 1.2937233664772725 1.6322274502840908 1.2820712002840906 1.6313951526988637 Q 1.270419034090909 1.6305628551136362 1.2571022727272725 1.6298970170454545 Q 1.2291370738636362 1.6288982599431816 1.2084960937499998 1.6305628551136362 Q 1.2084960937499998 1.6595268110795454 1.208163174715909 1.6881578480113637 Q 1.207830255681818 1.7221155894886362 1.207497336647727 1.7570720880681818 Q 1.2064985795454544 1.850955255681818 1.2064985795454544 1.89556640625 Q 1.248113458806818 1.89556640625 1.2677556818181817 1.8935688920454545 Q 1.2890624999999998 1.891238458806818 1.2945556640624998 1.89556640625 Q 1.3000488281249998 1.8998943536931818 1.3000488281249998 1.9072185724431818 Q 1.3000488281249998 1.9255291193181818 1.2657581676136362 1.92486328125 Q 1.258766867897727 1.9245303622159091 1.2531072443181817 1.9245303622159091 L 1.226140802556818 1.924197443181818 L 1.2064985795454544 1.924197443181818 L 1.2064985795454544 1.9564905894886362 M 1.7115367542613635 1.7427565696022727 Q 1.7115367542613635 1.6305628551136362 1.643954190340909 1.6305628551136362 Q 1.607000177556818 1.6305628551136362 1.5891890092329544 1.6628560014204545 Q 1.5713778409090908 1.6951491477272727 1.574041193181818 1.7577379261363637 Q 1.574041193181818 1.7720534446022727 1.5620561079545452 1.7763813920454545 Q 1.5587269176136362 1.7773801491477272 1.553566672585227 1.7773801491477272 Q 1.548406427556818 1.7773801491477272 1.542913263494318 1.7718869850852272 Q 1.537420099431818 1.7663938210227272 1.537087180397727 1.7554074928977272 Q 1.5347567471590908 1.678836115056818 1.5690474076704544 1.6372212357954545 Q 1.5990101207386362 1.6002672230113637 1.6486150568181817 1.6002672230113637 Q 1.723854758522727 1.6002672230113637 1.7401677911931817 1.679501953125 Q 1.7454944957386362 1.70513671875 1.7454944957386362 1.7336012961647727 Q 1.7454944957386362 1.7620658735795454 1.7380038174715908 1.7848708274147727 Q 1.7305131392045452 1.80767578125 1.7181951349431817 1.8299813565340908 Q 1.705877130681818 1.8522869318181818 1.6902299360795452 1.8742595880681818 Q 1.6745827414772725 1.8962322443181818 1.6581032492897725 1.9180384410511362 Q 1.6416237571022725 1.9398446377840908 1.6259765624999998 1.9618172940340908 Q 1.610329367897727 1.9837899502840908 1.5980113636363635 2.0060955255681816 Q 1.570712002840909 2.055367542613636 1.570712002840909 2.0976482599431816 Q 1.570712002840909 2.1063041548295454 1.573708274147727 2.10796875 Q 1.5767045454545452 2.1096333451704545 1.5893554687499998 2.1091339666193183 Q 1.6020063920454544 2.1086345880681816 1.6199840198863635 2.1073029119318183 Q 1.6379616477272725 2.1059712357954545 1.6562721946022725 2.1046395596590908 Q 1.6995516690340908 2.1019762073863637 1.7161976207386362 2.103307883522727 Q 1.742498224431818 2.1049724786931816 1.742498224431818 2.1219513494318183 Q 1.742498224431818 2.1282768110795454 1.7378373579545452 2.1334370561079545 Q 1.7331764914772725 2.1385973011363637 1.724187677556818 2.1385973011363637 L 1.6449529474431817 2.1375985440340908 Q 1.5896883877840908 2.1375985440340908 1.5677157315340908 2.1397625177556816 Q 1.5457430752840908 2.1419264914772724 1.538918235085227 2.137265625 Q 1.5320933948863635 2.132604758522727 1.5320933948863635 2.1206196732954545 Q 1.5320933948863635 2.055367542613636 1.5787020596590908 1.9814595170454545 Q 1.5986772017045452 1.949832208806818 1.6218150745738635 1.9200359552556818 Q 1.6449529474431817 1.8902397017045454 1.6649280894886362 1.8609428267045454 Q 1.7115367542613635 1.79302734375 1.7115367542613635 1.7427565696022727 M 1.9500732421874998 2.146920276988636 Q 1.8568559126420452 2.146920276988636 1.8368807705965906 1.9767986505681818 Q 1.8305553089488635 1.9228657670454545 1.8305553089488635 1.858279474431818 Q 1.8305553089488635 1.7936931818181818 1.8382124467329544 1.7455863813920454 Q 1.8458695845170452 1.6974795809659091 1.861516779119318 1.6645205965909091 Q 1.8938099254261362 1.5962721946022727 1.9560657848011362 1.5962721946022727 Q 2.019986239346591 1.5962721946022727 2.049283114346591 1.6618572443181818 Q 2.0769153941761362 1.7244460227272727 2.077581232244318 1.8549502840909091 Q 2.078579989346591 2.0656880326704545 2.0073353160511362 2.1266122159090908 Q 1.9830322265624998 2.146920276988636 1.9500732421874998 2.146920276988636 M 1.949740323153409 2.1169575639204545 Q 2.0459539240056817 2.1169575639204545 2.0459539240056817 1.8572807173295454 Q 2.0459539240056817 1.7111292613636362 2.0143266157670454 1.6598597301136362 Q 1.993019797585227 1.6255690696022727 1.9560657848011362 1.6255690696022727 Q 1.8625155362215906 1.6255690696022727 1.8625155362215906 1.8606099076704545 Q 1.8625155362215906 2.0620259232954545 1.912786310369318 2.103307883522727 Q 1.9290993430397725 2.1169575639204545 1.949740323153409 2.1169575639204545 M 2.290482954545454 2.146920276988636 Q 2.197265625 2.146920276988636 2.1772904829545454 1.9767986505681818 Q 2.170965021306818 1.9228657670454545 2.170965021306818 1.858279474431818 Q 2.170965021306818 1.7936931818181818 2.1786221590909087 1.7455863813920454 Q 2.186279296875 1.6974795809659091 2.2019264914772725 1.6645205965909091 Q 2.234219637784091 1.5962721946022727 2.296475497159091 1.5962721946022727 Q 2.3603959517045454 1.5962721946022727 2.3896928267045454 1.6618572443181818 Q 2.417325106534091 1.7244460227272727 2.4179909446022725 1.8549502840909091 Q 2.4189897017045454 2.0656880326704545 2.347745028409091 2.1266122159090908 Q 2.323441938920454 2.146920276988636 2.290482954545454 2.146920276988636 M 2.2901500355113633 2.1169575639204545 Q 2.3863636363636362 2.1169575639204545 2.3863636363636362 1.8572807173295454 Q 2.3863636363636362 1.7111292613636362 2.354736328125 1.6598597301136362 Q 2.3334295099431817 1.6255690696022727 2.296475497159091 1.6255690696022727 Q 2.2029252485795454 1.6255690696022727 2.2029252485795454 1.8606099076704545 Q 2.2029252485795454 2.0620259232954545 2.2531960227272725 2.103307883522727 Q 2.269509055397727 2.1169575639204545 2.2901500355113633 2.1169575639204545 M 2.6808305220170454 1.7427565696022727 Q 2.6808305220170454 1.6305628551136362 2.613247958096591 1.6305628551136362 Q 2.5762939453125 1.6305628551136362 2.5584827769886362 1.6628560014204545 Q 2.5406716086647725 1.6951491477272727 2.5433349609375 1.7577379261363637 Q 2.5433349609375 1.7720534446022727 2.531349875710227 1.7763813920454545 Q 2.528020685369318 1.7773801491477272 2.522860440340909 1.7773801491477272 Q 2.5177001953125 1.7773801491477272 2.51220703125 1.7718869850852272 Q 2.5067138671875 1.7663938210227272 2.506380948153409 1.7554074928977272 Q 2.5040505149147725 1.678836115056818 2.5383411754261362 1.6372212357954545 Q 2.568303888494318 1.6002672230113637 2.6179088245738633 1.6002672230113637 Q 2.693148526278409 1.6002672230113637 2.7094615589488633 1.679501953125 Q 2.714788263494318 1.70513671875 2.714788263494318 1.7336012961647727 Q 2.714788263494318 1.7620658735795454 2.7072975852272725 1.7848708274147727 Q 2.699806906960227 1.80767578125 2.6874889026988633 1.8299813565340908 Q 2.6751708984375 1.8522869318181818 2.659523703835227 1.8742595880681818 Q 2.6438765092329546 1.8962322443181818 2.6273970170454546 1.9180384410511362 Q 2.6109175248579546 1.9398446377840908 2.5952703302556817 1.9618172940340908 Q 2.579623135653409 1.9837899502840908 2.5673051313920454 2.0060955255681816 Q 2.540005770596591 2.055367542613636 2.540005770596591 2.0976482599431816 Q 2.540005770596591 2.1063041548295454 2.543002041903409 2.10796875 Q 2.545998313210227 2.1096333451704545 2.5586492365056817 2.1091339666193183 Q 2.5713001598011362 2.1086345880681816 2.5892777876420454 2.1073029119318183 Q 2.6072554154829546 2.1059712357954545 2.6255659623579546 2.1046395596590908 Q 2.6688454367897725 2.1019762073863637 2.685491388494318 2.103307883522727 Q 2.7117919921875 2.1049724786931816 2.7117919921875 2.1219513494318183 Q 2.7117919921875 2.1282768110795454 2.707131125710227 2.1334370561079545 Q 2.7024702592329546 2.1385973011363637 2.6934814453125 2.1385973011363637 L 2.6142467151988633 2.1375985440340908 Q 2.5589821555397725 2.1375985440340908 2.5370094992897725 2.1397625177556816 Q 2.5150368430397725 2.1419264914772724 2.508212002840909 2.137265625 Q 2.5013871626420454 2.132604758522727 2.5013871626420454 2.1206196732954545 Q 2.5013871626420454 2.055367542613636 2.5479958274147725 1.9814595170454545 Q 2.567970969460227 1.949832208806818 2.5911088423295454 1.9200359552556818 Q 2.6142467151988633 1.8902397017045454 2.634221857244318 1.8609428267045454 Q 2.6808305220170454 1.79302734375 2.6808305220170454 1.7427565696022727" fill="#8c1627" fill-rule="nonzero"></path></g></g><defs><clipPath id="SvgjsClipPath1001"><path d=" M 0 -4.388206094288817 h 4.234354279527255 v 4.138206094288817 h -4.234354279527255 Z"></path></clipPath><clipPath id="b34b9aca8-50b4-436a-bcf7-e8291f7ee158704b2dd1-2017-418f-ba3b-b24545afd60c"><path d=" M -0.005691142297123702 -4.393897548258398 L 4.24004717452377 -4.393897548258398 L 4.24004717452377 -0.24430653503364574 L -0.005691142297123702 -0.24430653503364574 Z"></path></clipPath></defs></svg>